# ProBuilder 4.4.0
# https://unity3d.com/unity/features/worldbuilding/probuilder
# 24.10.2021 19:42:09

mtllib ./Obstacle45D.mtl
o Obstacle45D

g 45deg
v -5 1.5 0
v -4.997085 1.5 0.1707056
v -5 0.4999999 -1.192093E-07
v -4.997085 0.4999999 0.1707055
v -4.497376 1.5 0.153635
v -4.5 1.5 0
v -4.497376 0.4999999 0.1536349
v -4.5 0.4999999 -1.192093E-07
v -4.988344 1.5 0.3412121
v -4.988344 0.4999999 0.341212
v -4.48951 1.5 0.3070909
v -4.48951 0.4999999 0.3070908
v -4.973786 1.5 0.5113208
v -4.973786 0.4999998 0.5113207
v -4.476408 1.5 0.4601887
v -4.476408 0.4999998 0.4601886
v -4.95343 1.5 0.6808333
v -4.95343 0.4999998 0.6808332
v -4.458087 1.5 0.61275
v -4.458087 0.4999998 0.6127499
v -4.927298 1.5 0.8495522
v -4.927298 0.4999998 0.849552
v -4.434568 1.5 0.7645969
v -4.434568 0.4999998 0.7645968
v -4.895421 1.5 1.01728
v -4.895421 0.4999998 1.01728
v -4.405879 1.5 0.9155521
v -4.405879 0.4999998 0.915552
v -4.857835 1.5 1.183822
v -4.857835 0.4999997 1.183822
v -4.372052 1.5 1.06544
v -4.372052 0.4999998 1.06544
v -4.814586 1.5 1.348984
v -4.814586 0.4999997 1.348984
v -4.333127 1.5 1.214086
v -4.333127 0.4999997 1.214086
v -4.765724 1.5 1.512573
v -4.765724 0.4999997 1.512573
v -4.289152 1.5 1.361316
v -4.289152 0.4999997 1.361315
v -4.711305 1.5 1.674398
v -4.711305 0.4999997 1.674398
v -4.240174 1.5 1.506959
v -4.240174 0.4999997 1.506958
v -4.651392 1.5 1.834271
v -4.651392 0.4999997 1.834271
v -4.186253 1.5 1.650844
v -4.186253 0.4999997 1.650844
v -4.586057 1.5 1.992006
v -4.586057 0.4999996 1.992005
v -4.127451 1.5 1.792805
v -4.127451 0.4999997 1.792805
v -4.515374 1.5 2.147418
v -4.515374 0.4999996 2.147418
v -4.063836 1.5 1.932676
v -4.063836 0.4999996 1.932676
v -4.439426 1.5 2.300325
v -4.439426 0.4999996 2.300325
v -3.995483 1.5 2.070293
v -3.995483 0.4999996 2.070293
v -4.358302 1.5 2.450551
v -4.358302 0.4999996 2.450551
v -3.922472 1.5 2.205496
v -3.922472 0.4999996 2.205496
v -4.272097 1.5 2.59792
v -4.272097 0.4999996 2.59792
v -3.844887 1.5 2.338128
v -3.844887 0.4999996 2.338128
v -4.180911 1.5 2.74226
v -4.180911 0.4999996 2.74226
v -3.76282 1.5 2.468034
v -3.76282 0.4999996 2.468034
v -4.084849 1.5 2.883402
v -4.084849 0.4999995 2.883402
v -3.676364 1.5 2.595062
v -3.676364 0.4999996 2.595062
v -3.984026 1.5 3.021182
v -3.984026 0.4999995 3.021182
v -3.585623 1.5 2.719064
v -3.585623 0.4999996 2.719064
v -3.878556 1.5 3.15544
v -3.878556 0.4999995 3.15544
v -3.4907 1.5 2.839896
v -3.4907 0.4999996 2.839896
v -3.768565 1.5 3.286019
v -3.768565 0.4999995 3.286019
v -3.391709 1.5 2.957417
v -3.391709 0.4999995 2.957417
v -3.65418 1.5 3.412766
v -3.65418 0.4999995 3.412766
v -3.288762 1.5 3.07149
v -3.288762 0.4999995 3.07149
v -3.535534 1.5 3.535534
v -3.535534 0.4999995 3.535534
v -3.18198 1.5 3.181981
v -3.18198 0.4999995 3.181981

vt 0 0
vt 0 0.1707304
vt 1 0
vt 1 0.1707304
vt 0 0.1621944
vt 0 0.008537037
vt -1 0.1621944
vt -1 0.008537037
vt 0 1
vt 0.5 1
vt 0.5 0
vt 0 0.3413614
vt 1 0.3413614
vt 0 0.3328239
vt 0 0.1791665
vt -1 0.3328239
vt -1 0.1791665
vt 0 0.3409634
vt 0 0.5116937
vt 1 0.3409634
vt 1 0.5116937
vt 0 0.5031568
vt 0 0.3494995
vt -1 0.5031568
vt -1 0.3494995
vt 0 0.5107986
vt 0 0.6815291
vt 1 0.5107986
vt 1 0.6815291
vt 0 0.6729926
vt 0 0.5193353
vt -1 0.6729926
vt -1 0.5193353
vt 0 0.6799389
vt 0 0.8506695
vt 1 0.6799389
vt 1 0.8506695
vt 0 0.8421332
vt 0 0.6884757
vt -1 0.8421332
vt -1 0.6884757
vt 0 0.848187
vt 0 1.018917
vt 1 0.848187
vt 1 1.018917
vt 0 1.010381
vt 0 0.8567234
vt -1 1.010381
vt -1 0.8567234
vt 0 1.015346
vt 0 1.186077
vt 1 1.015346
vt 1 1.186077
vt 0 1.177541
vt 0 1.023884
vt -1 1.177541
vt -1 1.023884
vt 0 1.181222
vt 0 1.351953
vt 1 1.181222
vt 1 1.351953
vt 0 1.343417
vt 0 1.189759
vt -1 1.343417
vt -1 1.189759
vt 0 1.345623
vt 0 1.516353
vt 1 1.345623
vt 1 1.516353
vt 0 1.507815
vt 0 1.354157
vt -1 1.507815
vt -1 1.354157
vt 0 1.508352
vt 0 1.679083
vt 1 1.508352
vt 1 1.679083
vt 0 1.670546
vt 0 1.516889
vt -1 1.670546
vt -1 1.516889
vt 0 1.669225
vt 0 1.839955
vt 1 1.669225
vt 1 1.839955
vt 0 1.831419
vt 0 1.677762
vt -1 1.831419
vt -1 1.677762
vt 0 1.828053
vt 0 1.998783
vt 1 1.828053
vt 1 1.998783
vt 0 1.990246
vt 0 1.836589
vt -1 1.990246
vt -1 1.836589
vt 0 1.984647
vt 0 2.155378
vt 1 1.984647
vt 1 2.155378
vt 0 2.146842
vt 0 1.993184
vt -1 2.146842
vt -1 1.993184
vt 0 2.138829
vt 0 2.30956
vt 1 2.138829
vt 1 2.30956
vt 0 2.301024
vt 0 2.147367
vt -1 2.301024
vt -1 2.147367
vt 0 2.290419
vt 0 2.461149
vt 1 2.290419
vt 1 2.461149
vt 0 2.452613
vt 0 2.298956
vt -1 2.452613
vt -1 2.298956
vt 0 2.43924
vt 0 2.60997
vt 1 2.43924
vt 1 2.60997
vt 0 2.601432
vt 0 2.447775
vt -1 2.601432
vt -1 2.447775
vt 0 2.585115
vt 0 2.755845
vt 1 2.585115
vt 1 2.755845
vt 0 2.747308
vt 0 2.593651
vt -1 2.747308
vt -1 2.593651
vt 0 2.727872
vt 0 2.898603
vt 1 2.727872
vt 1 2.898603
vt 0 2.890068
vt 0 2.736411
vt -1 2.890068
vt -1 2.736411
vt 0 2.867358
vt 0 3.038089
vt 1 2.867358
vt 1 3.038089
vt 0 3.029552
vt 0 2.875895
vt -1 3.029552
vt -1 2.875895
vt 0 3.003395
vt 0 3.174126
vt 1 3.003395
vt 1 3.174126
vt 0 3.165588
vt 0 3.01193
vt -1 3.165588
vt -1 3.01193
vt 0 3.135834
vt 0 3.306565
vt 1 3.135834
vt 1 3.306565
vt 0 3.298028
vt 0 3.144371
vt -1 3.298028
vt -1 3.144371
vt 0 3.264516
vt 0 3.435247
vt 1 3.264516
vt 1 3.435247
vt 0 3.42671
vt 0 3.273052
vt -1 3.42671
vt -1 3.273052
vt 0 3.38929
vt 0 3.56002
vt 1 3.38929
vt 1 3.56002
vt 0 3.551483
vt 0 3.397825
vt -1 3.551483
vt -1 3.397825
vt 0.9644659 1
vt 1.464466 1
vt 0.9644659 0
vt 1.464466 0
vt 0.002914906 0.1707056
vt 0.5026236 0.153635
vt -0.002914906 0.1707056
vt -0.5026236 0.153635
vt -0.5 0
vt 0.01165628 0.3412121
vt 0.5104904 0.3070909
vt -0.01165628 0.3412121
vt -0.5104904 0.3070909
vt 0.02621365 0.5113207
vt 0.523592 0.4601887
vt -0.02621365 0.5113207
vt -0.523592 0.4601887
vt 0.0465703 0.6808332
vt 0.541913 0.6127499
vt -0.0465703 0.6808332
vt -0.541913 0.6127499
vt 0.07270241 0.849552
vt 0.5654321 0.7645968
vt -0.07270241 0.849552
vt -0.5654321 0.7645968
vt 0.1045794 1.01728
vt 0.5941215 0.915552
vt -0.1045794 1.01728
vt -0.5941215 0.915552
vt 0.1421647 1.183822
vt 0.6279483 1.06544
vt -0.1421647 1.183822
vt -0.6279483 1.06544
vt 0.1854138 1.348984
vt 0.6668725 1.214086
vt -0.1854138 1.348984
vt -0.6668725 1.214086
vt 0.2342758 1.512573
vt 0.7108483 1.361315
vt -0.2342758 1.512573
vt -0.7108483 1.361315
vt 0.2886953 1.674398
vt 0.7598257 1.506958
vt -0.2886953 1.674398
vt -0.7598257 1.506958
vt 0.348608 1.834271
vt 0.8137469 1.650844
vt -0.348608 1.834271
vt -0.8137469 1.650844
vt 0.4139433 1.992005
vt 0.8725491 1.792805
vt -0.4139433 1.992005
vt -0.8725491 1.792805
vt 0.4846263 2.147417
vt 0.9361639 1.932675
vt -0.4846263 2.147417
vt -0.9361639 1.932675
vt 0.5605741 2.300325
vt 1.004517 2.070293
vt -0.5605741 2.300325
vt -1.004517 2.070293
vt 0.6416979 2.450551
vt 1.077528 2.205496
vt -0.6416979 2.450551
vt -1.077528 2.205496
vt 0.7279029 2.59792
vt 1.155113 2.338128
vt -0.7279029 2.59792
vt -1.155113 2.338128
vt 0.8190889 2.742259
vt 1.23718 2.468033
vt -0.8190889 2.742259
vt -1.23718 2.468033
vt 0.9151506 2.883401
vt 1.323636 2.595061
vt -0.9151506 2.883401
vt -1.323636 2.595061
vt 1.015974 3.021182
vt 1.414377 2.719064
vt -1.015974 3.021182
vt -1.414377 2.719064
vt 1.121444 3.15544
vt 1.5093 2.839896
vt -1.121444 3.15544
vt -1.5093 2.839896
vt 1.231435 3.286018
vt 1.608291 2.957417
vt -1.231435 3.286018
vt -1.608291 2.957417
vt 1.34582 3.412766
vt 1.711238 3.071489
vt -1.34582 3.412766
vt -1.711238 3.071489
vt 1.464466 3.535534
vt 1.81802 3.18198
vt -1.464466 3.535534
vt -1.81802 3.18198

vn -0.9998543 -2.035278E-09 0.01707315
vn 0.9998543 2.035388E-09 -0.01707408
vn 0 1.192093E-07 -1
vn -0.9986885 -6.103501E-09 0.05119989
vn 0.9986886 6.103207E-09 -0.05119742
vn -0.9963583 -1.016441E-08 0.08526523
vn 0.9963583 1.016437E-08 -0.08526491
vn -0.9928663 -1.421365E-08 0.1192327
vn 0.9928663 1.421368E-08 -0.119233
vn -0.9882168 -1.824623E-08 0.1530605
vn 0.9882167 1.824635E-08 -0.1530615
vn -0.9824151 -2.225757E-08 0.18671
vn 0.982415 2.22576E-08 -0.1867103
vn -0.9754674 -2.624318E-08 0.2201438
vn 0.9754673 2.624326E-08 -0.2201445
vn -0.9673831 -3.019785E-08 0.2533179
vn 0.9673831 3.019785E-08 -0.253318
vn -0.9581716 -3.411701E-08 0.2861943
vn 0.9581715 3.411704E-08 -0.2861945
vn -0.9478406 -3.799735E-08 0.3187449
vn 0.9478409 3.799722E-08 -0.3187438
vn -0.9364055 -4.183291E-08 0.3509199
vn 0.936406 4.183277E-08 -0.3509187
vn -0.9238804 -4.561918E-08 0.3826815
vn 0.9238795 4.561943E-08 -0.3826836
vn -0.9102755 -4.935299E-08 0.414003
vn 0.9102751 4.935313E-08 -0.4140041
vn -0.8956099 -5.302909E-08 0.4448403
vn 0.8956109 5.302886E-08 -0.4448384
vn -0.8799009 -5.664317E-08 0.4751574
vn 0.8799011 5.664312E-08 -0.475157
vn -0.8631666 -6.019106E-08 0.5049193
vn 0.8631655 6.01913E-08 -0.5049213
vn -0.8454249 -6.366901E-08 0.5340945
vn 0.845425 6.366901E-08 -0.5340944
vn -0.8266948 -6.707319E-08 0.5626507
vn 0.8266955 6.707306E-08 -0.5626497
vn -0.8070061 -7.039823E-08 0.5905432
vn 0.8070066 7.039814E-08 -0.5905425
vn -0.7863724 -7.364187E-08 0.6177529
vn 0.7863709 7.364209E-08 -0.6177547
vn -0.764824 -7.679931E-08 0.6442394
vn 0.7648247 7.679921E-08 -0.6442385
vn -0.7423833 -7.98673E-08 0.6699755
vn 0.7423834 7.986728E-08 -0.6699754
vn -0.7190754 -8.284235E-08 0.694932
vn 0.7190747 8.284245E-08 -0.6949329
vn 0.7071068 -8.42937E-08 0.7071068
vn 0 -1 -1.192093E-07
vn 0 1 1.192093E-07

usemtl ProBuilderDefault
f 3/3/1 4/4/1 2/2/1 1/1/1
f 7/7/2 8/8/2 6/6/2 5/5/2
f 1/1/3 6/11/3 8/10/3 3/9/3
f 4/4/4 10/13/4 9/12/4 2/2/4
f 12/16/5 7/17/5 5/15/5 11/14/5
f 10/20/6 14/21/6 13/19/6 9/18/6
f 16/24/7 12/25/7 11/23/7 15/22/7
f 14/28/8 18/29/8 17/27/8 13/26/8
f 20/32/9 16/33/9 15/31/9 19/30/9
f 18/36/10 22/37/10 21/35/10 17/34/10
f 24/40/11 20/41/11 19/39/11 23/38/11
f 22/44/12 26/45/12 25/43/12 21/42/12
f 28/48/13 24/49/13 23/47/13 27/46/13
f 26/52/14 30/53/14 29/51/14 25/50/14
f 32/56/15 28/57/15 27/55/15 31/54/15
f 30/60/16 34/61/16 33/59/16 29/58/16
f 36/64/17 32/65/17 31/63/17 35/62/17
f 34/68/18 38/69/18 37/67/18 33/66/18
f 40/72/19 36/73/19 35/71/19 39/70/19
f 38/76/20 42/77/20 41/75/20 37/74/20
f 44/80/21 40/81/21 39/79/21 43/78/21
f 42/84/22 46/85/22 45/83/22 41/82/22
f 48/88/23 44/89/23 43/87/23 47/86/23
f 46/92/24 50/93/24 49/91/24 45/90/24
f 52/96/25 48/97/25 47/95/25 51/94/25
f 50/100/26 54/101/26 53/99/26 49/98/26
f 56/104/27 52/105/27 51/103/27 55/102/27
f 54/108/28 58/109/28 57/107/28 53/106/28
f 60/112/29 56/113/29 55/111/29 59/110/29
f 58/116/30 62/117/30 61/115/30 57/114/30
f 64/120/31 60/121/31 59/119/31 63/118/31
f 62/124/32 66/125/32 65/123/32 61/122/32
f 68/128/33 64/129/33 63/127/33 67/126/33
f 66/132/34 70/133/34 69/131/34 65/130/34
f 72/136/35 68/137/35 67/135/35 71/134/35
f 70/140/36 74/141/36 73/139/36 69/138/36
f 76/144/37 72/145/37 71/143/37 75/142/37
f 74/148/38 78/149/38 77/147/38 73/146/38
f 80/152/39 76/153/39 75/151/39 79/150/39
f 78/156/40 82/157/40 81/155/40 77/154/40
f 84/160/41 80/161/41 79/159/41 83/158/41
f 82/164/42 86/165/42 85/163/42 81/162/42
f 88/168/43 84/169/43 83/167/43 87/166/43
f 86/172/44 90/173/44 89/171/44 85/170/44
f 92/176/45 88/177/45 87/175/45 91/174/45
f 90/180/46 94/181/46 93/179/46 89/178/46
f 96/184/47 92/185/47 91/183/47 95/182/47
f 95/188/48 93/189/48 94/187/48 96/186/48
f 8/11/49 7/191/49 4/190/49 3/1/49
f 5/193/50 6/194/50 1/1/50 2/192/50
f 7/191/49 12/196/49 10/195/49 4/190/49
f 11/198/50 5/193/50 2/192/50 9/197/50
f 12/196/49 16/200/49 14/199/49 10/195/49
f 15/202/50 11/198/50 9/197/50 13/201/50
f 16/200/49 20/204/49 18/203/49 14/199/49
f 19/206/50 15/202/50 13/201/50 17/205/50
f 20/204/49 24/208/49 22/207/49 18/203/49
f 23/210/50 19/206/50 17/205/50 21/209/50
f 24/208/49 28/212/49 26/211/49 22/207/49
f 27/214/50 23/210/50 21/209/50 25/213/50
f 28/212/49 32/216/49 30/215/49 26/211/49
f 31/218/50 27/214/50 25/213/50 29/217/50
f 32/216/49 36/220/49 34/219/49 30/215/49
f 35/222/50 31/218/50 29/217/50 33/221/50
f 36/220/49 40/224/49 38/223/49 34/219/49
f 39/226/50 35/222/50 33/221/50 37/225/50
f 40/224/49 44/228/49 42/227/49 38/223/49
f 43/230/50 39/226/50 37/225/50 41/229/50
f 44/228/49 48/232/49 46/231/49 42/227/49
f 47/234/50 43/230/50 41/229/50 45/233/50
f 48/232/49 52/236/49 50/235/49 46/231/49
f 51/238/50 47/234/50 45/233/50 49/237/50
f 52/236/49 56/240/49 54/239/49 50/235/49
f 55/242/50 51/238/50 49/237/50 53/241/50
f 56/240/49 60/244/49 58/243/49 54/239/49
f 59/246/50 55/242/50 53/241/50 57/245/50
f 60/244/49 64/248/49 62/247/49 58/243/49
f 63/250/50 59/246/50 57/245/50 61/249/50
f 64/248/49 68/252/49 66/251/49 62/247/49
f 67/254/50 63/250/50 61/249/50 65/253/50
f 68/252/49 72/256/49 70/255/49 66/251/49
f 71/258/50 67/254/50 65/253/50 69/257/50
f 72/256/49 76/260/49 74/259/49 70/255/49
f 75/262/50 71/258/50 69/257/50 73/261/50
f 76/260/49 80/264/49 78/263/49 74/259/49
f 79/266/50 75/262/50 73/261/50 77/265/50
f 80/264/49 84/268/49 82/267/49 78/263/49
f 83/270/50 79/266/50 77/265/50 81/269/50
f 84/268/49 88/272/49 86/271/49 82/267/49
f 87/274/50 83/270/50 81/269/50 85/273/50
f 88/272/49 92/276/49 90/275/49 86/271/49
f 91/278/50 87/274/50 85/273/50 89/277/50
f 92/276/49 96/280/49 94/279/49 90/275/49
f 95/282/50 91/278/50 89/277/50 93/281/50

