# ProBuilder 4.4.0
# https://unity3d.com/unity/features/worldbuilding/probuilder
# 24.10.2021 19:43:16

mtllib ./Obstacle60D.mtl
o Obstacle60D

g 60deg
v -5 1.5 0
v -4.997762 1.5 0.1495773
v -5 0.4999999 -1.192093E-07
v -4.997762 0.4999999 0.1495772
v -4.497986 1.5 0.1346196
v -4.5 1.5 0
v -4.497986 0.4999999 0.1346195
v -4.5 0.4999999 -1.192093E-07
v -4.991051 1.5 0.2990208
v -4.991051 0.4999999 0.2990207
v -4.491946 1.5 0.2691187
v -4.491946 0.4999999 0.2691186
v -4.979872 1.5 0.4481966
v -4.979872 0.4999998 0.4481965
v -4.481884 1.5 0.4033769
v -4.481884 0.4999998 0.4033768
v -4.964234 1.5 0.5969712
v -4.964234 0.4999998 0.596971
v -4.467811 1.5 0.5372741
v -4.467811 0.4999998 0.5372739
v -4.944154 1.5 0.7452114
v -4.944154 0.4999998 0.7452112
v -4.449739 1.5 0.6706902
v -4.449739 0.4999998 0.6706901
v -4.919648 1.5 0.8927846
v -4.919648 0.4999998 0.8927845
v -4.427683 1.5 0.8035061
v -4.427683 0.4999998 0.803506
v -4.890738 1.5 1.039559
v -4.890738 0.4999998 1.039559
v -4.401664 1.5 0.9356028
v -4.401664 0.4999998 0.9356027
v -4.85745 1.5 1.185402
v -4.85745 0.4999997 1.185402
v -4.371705 1.5 1.066862
v -4.371705 0.4999998 1.066862
v -4.819814 1.5 1.330184
v -4.819814 0.4999997 1.330184
v -4.337833 1.5 1.197166
v -4.337833 0.4999997 1.197166
v -4.777864 1.5 1.473776
v -4.777864 0.4999997 1.473776
v -4.300077 1.5 1.326398
v -4.300077 0.4999997 1.326398
v -4.731637 1.5 1.616049
v -4.731637 0.4999997 1.616048
v -4.258473 1.5 1.454444
v -4.258473 0.4999997 1.454444
v -4.681174 1.5 1.756874
v -4.681174 0.4999997 1.756874
v -4.213057 1.5 1.581187
v -4.213057 0.4999997 1.581187
v -4.626522 1.5 1.896128
v -4.626522 0.4999996 1.896128
v -4.163869 1.5 1.706515
v -4.163869 0.4999997 1.706515
v -4.567727 1.5 2.033684
v -4.567727 0.4999996 2.033684
v -4.110954 1.5 1.830315
v -4.110954 0.4999997 1.830315
v -4.504844 1.5 2.169419
v -4.504844 0.4999996 2.169419
v -4.05436 1.5 1.952477
v -4.05436 0.4999996 1.952477
v -4.437929 1.5 2.303212
v -4.437929 0.4999996 2.303212
v -3.994136 1.5 2.072891
v -3.994136 0.4999996 2.072891
v -4.367041 1.5 2.434944
v -4.367041 0.4999996 2.434944
v -3.930337 1.5 2.19145
v -3.930337 0.4999996 2.19145
v -4.292244 1.5 2.564497
v -4.292244 0.4999996 2.564497
v -3.86302 1.5 2.308047
v -3.86302 0.4999996 2.308047
v -4.213604 1.5 2.691753
v -4.213604 0.4999996 2.691753
v -3.792244 1.5 2.422578
v -3.792244 0.4999996 2.422578
v -4.131194 1.5 2.816601
v -4.131194 0.4999996 2.816601
v -3.718075 1.5 2.53494
v -3.718075 0.4999996 2.53494
v -4.045085 1.5 2.938926
v -4.045085 0.4999995 2.938926
v -3.640577 1.5 2.645034
v -3.640577 0.4999996 2.645034
v -3.955355 1.5 3.058622
v -3.955355 0.4999995 3.058622
v -3.55982 1.5 2.75276
v -3.55982 0.4999996 2.75276
v -3.862085 1.5 3.175579
v -3.862085 0.4999995 3.175579
v -3.475877 1.5 2.858021
v -3.475877 0.4999996 2.858021
v -3.765357 1.5 3.289694
v -3.765357 0.4999995 3.289694
v -3.388822 1.5 2.960725
v -3.388822 0.4999995 2.960725
v -3.665259 1.5 3.400864
v -3.665259 0.4999995 3.400864
v -3.298733 1.5 3.060778
v -3.298733 0.4999995 3.060778
v -3.56188 1.5 3.50899
v -3.56188 0.4999995 3.50899
v -3.205692 1.5 3.158091
v -3.205692 0.4999995 3.158091
v -3.455313 1.5 3.613975
v -3.455313 0.4999995 3.613974
v -3.109782 1.5 3.252577
v -3.109782 0.4999995 3.252577
v -3.345653 1.5 3.715725
v -3.345653 0.4999994 3.715725
v -3.011087 1.5 3.344152
v -3.011087 0.4999995 3.344152
v -3.232998 1.5 3.814148
v -3.232998 0.4999994 3.814148
v -2.909698 1.5 3.432734
v -2.909698 0.4999995 3.432734
v -3.117449 1.5 3.909158
v -3.117449 0.4999994 3.909158
v -2.805704 1.5 3.518242
v -2.805704 0.4999995 3.518242
v -2.999109 1.5 4.000668
v -2.999109 0.4999994 4.000668
v -2.699198 1.5 3.600601
v -2.699198 0.4999995 3.600601
v -2.878085 1.5 4.088597
v -2.878085 0.4999994 4.088597
v -2.590277 1.5 3.679738
v -2.590277 0.4999994 3.679738
v -2.754485 1.5 4.172867
v -2.754485 0.4999994 4.172867
v -2.479036 1.5 3.75558
v -2.479036 0.4999994 3.75558
v -2.628419 1.5 4.253401
v -2.628419 0.4999994 4.253401
v -2.365577 1.5 3.828061
v -2.365577 0.4999994 3.82806
v -2.5 1.5 4.330128
v -2.5 0.4999994 4.330128
v -2.25 1.5 3.897115
v -2.25 0.4999994 3.897115

vt 0 0
vt 0 0.1495941
vt 1 0
vt 1 0.1495941
vt 0 0.1421148
vt 0 0.007480095
vt -1 0.1421148
vt -1 0.007480095
vt 0 1
vt 0.5 1
vt 0.5 0
vt 0 0.2991212
vt 1 0.2991212
vt 0 0.2916405
vt 0 0.1570058
vt -1 0.2916405
vt -1 0.1570058
vt 0 0.2988534
vt 0 0.4484475
vt 1 0.2988534
vt 1 0.4484475
vt 0 0.4409678
vt 0 0.3063332
vt -1 0.4409678
vt -1 0.3063332
vt 0 0.4478451
vt 0 0.5974392
vt 1 0.4478451
vt 1 0.5974392
vt 0 0.5899604
vt 0 0.4553257
vt -1 0.5899604
vt -1 0.4553257
vt 0 0.5963693
vt 0 0.7459633
vt 1 0.5963693
vt 1 0.7459633
vt 0 0.7384842
vt 0 0.6038495
vt -1 0.7384842
vt -1 0.6038495
vt 0 0.7442926
vt 0 0.8938866
vt 1 0.7442926
vt 1 0.8938866
vt 0 0.8864071
vt 0 0.7517724
vt -1 0.8864071
vt -1 0.7517724
vt 0 0.8914828
vt 0 1.041077
vt 1 0.8914828
vt 1 1.041077
vt 0 1.033596
vt 0 0.8989613
vt -1 1.033596
vt -1 0.8989613
vt 0 1.037808
vt 0 1.187402
vt 1 1.037808
vt 1 1.187402
vt 0 1.179922
vt 0 1.045288
vt -1 1.179922
vt -1 1.045288
vt 0 1.183137
vt 0 1.332731
vt 1 1.183137
vt 1 1.332731
vt 0 1.325251
vt 0 1.190616
vt -1 1.325251
vt -1 1.190616
vt 0 1.32734
vt 0 1.476934
vt 1 1.32734
vt 1 1.476934
vt 0 1.469455
vt 0 1.33482
vt -1 1.469455
vt -1 1.33482
vt 0 1.470288
vt 0 1.619882
vt 1 1.470288
vt 1 1.619882
vt 0 1.612402
vt 0 1.477767
vt -1 1.612402
vt -1 1.477767
vt 0 1.611853
vt 0 1.761447
vt 1 1.611853
vt 1 1.761447
vt 0 1.753967
vt 0 1.619333
vt -1 1.753967
vt -1 1.619333
vt 0 1.751909
vt 0 1.901503
vt 1 1.751909
vt 1 1.901503
vt 0 1.894023
vt 0 1.759388
vt -1 1.894023
vt -1 1.759388
vt 0 1.890327
vt 0 2.039922
vt 1 1.890327
vt 1 2.039922
vt 0 2.032443
vt 0 1.897808
vt -1 2.032443
vt -1 1.897808
vt 0 2.026989
vt 0 2.176583
vt 1 2.026989
vt 1 2.176583
vt 0 2.169103
vt 0 2.034469
vt -1 2.169103
vt -1 2.034469
vt 0 2.16177
vt 0 2.311364
vt 1 2.16177
vt 1 2.311364
vt 0 2.303883
vt -1 2.303883
vt 0 2.294546
vt 0 2.44414
vt 1 2.294546
vt 1 2.44414
vt 0 2.436661
vt 0 2.302026
vt -1 2.436661
vt -1 2.302026
vt 0 2.425203
vt 0 2.574797
vt 1 2.425203
vt 1 2.574797
vt 0 2.567317
vt 0 2.432683
vt -1 2.567317
vt -1 2.432683
vt 0 2.55362
vt 0 2.703214
vt 1 2.55362
vt 1 2.703214
vt 0 2.695736
vt 0 2.561101
vt -1 2.695736
vt -1 2.561101
vt 0 2.679691
vt 0 2.829284
vt 1 2.679691
vt 1 2.829284
vt 0 2.821802
vt 0 2.687168
vt -1 2.821802
vt -1 2.687168
vt 0 2.803287
vt 0 2.952881
vt 1 2.803287
vt 1 2.952881
vt 0 2.945403
vt 0 2.810768
vt -1 2.945403
vt -1 2.810768
vt 0 2.924313
vt 0 3.073907
vt 1 2.924313
vt 1 3.073907
vt 0 3.066427
vt 0 2.931792
vt -1 3.066427
vt -1 2.931792
vt 0 3.042652
vt 0 3.192245
vt 1 3.042652
vt 1 3.192245
vt 0 3.184766
vt 0 3.050132
vt -1 3.184766
vt -1 3.050132
vt 0 3.158201
vt 0 3.307795
vt 1 3.158201
vt 1 3.307795
vt 0 3.300315
vt 0 3.16568
vt -1 3.300315
vt -1 3.16568
vt 0 3.270855
vt 0 3.420449
vt 1 3.270855
vt 1 3.420449
vt 0 3.412971
vt 0 3.278336
vt -1 3.412971
vt -1 3.278336
vt 0 3.380516
vt 0 3.53011
vt 1 3.380516
vt 1 3.53011
vt 0 3.522629
vt 0 3.387995
vt -1 3.522629
vt -1 3.387995
vt -3.487084 0
vt -3.636678 0
vt -3.487084 1
vt -3.636678 1
vt 3.6292 0
vt 3.494565 0
vt 3.6292 1
vt 3.494565 1
vt -3.590464 0
vt -3.740058 0
vt -3.590464 1
vt -3.740058 1
vt 3.732576 0
vt 3.59794 0
vt 3.732576 1
vt 3.59794 1
vt -3.690559 0
vt -3.840153 0
vt -3.690559 1
vt -3.840153 1
vt 3.832677 0
vt 3.698042 0
vt 3.832677 1
vt 3.698042 1
vt -3.787289 0
vt -3.936882 0
vt -3.787289 1
vt -3.936882 1
vt 3.929399 0
vt 3.794765 0
vt 3.929399 1
vt 3.794765 1
vt -3.880554 0
vt -4.030149 0
vt -3.880554 1
vt -4.030149 1
vt 4.022673 0
vt 3.888038 0
vt 4.022673 1
vt 3.888038 1
vt -3.970291 0
vt -4.119884 0
vt -3.970291 1
vt -4.119884 1
vt 4.112403 0
vt 3.977769 0
vt 4.112403 1
vt 3.977769 1
vt -4.056396 0
vt -4.205991 0
vt -4.056396 1
vt -4.205991 1
vt 4.198511 0
vt 4.063877 0
vt 4.198511 1
vt 4.063877 1
vt -4.13881 0
vt -4.288404 0
vt -4.13881 1
vt -4.288404 1
vt 4.280921 0
vt 4.146286 0
vt 4.280921 1
vt 4.146286 1
vt -4.217447 0
vt -4.367042 0
vt -4.217447 1
vt -4.367042 1
vt 4.359564 0
vt 4.224929 0
vt 4.359564 1
vt 4.224929 1
vt -1 2
vt -1 2.5
vt 0 2
vt 0 2.5
vt 0.002237797 0.1495773
vt 0.5020142 0.1346196
vt -0.002237797 0.1495773
vt -0.5020142 0.1346196
vt -0.5 0
vt 0.00894928 0.2990208
vt 0.5080543 0.2691187
vt -0.00894928 0.2990208
vt -0.5080543 0.2691187
vt 0.02012825 0.4481965
vt 0.5181155 0.4033769
vt -0.02012825 0.4481965
vt -0.5181155 0.4033769
vt 0.03576565 0.5969711
vt 0.5321889 0.537274
vt -0.03576565 0.5969711
vt -0.5321889 0.537274
vt 0.05584621 0.7452113
vt 0.5502615 0.6706902
vt -0.05584621 0.7452113
vt -0.5502615 0.6706902
vt 0.08035231 0.8927845
vt 0.5723171 0.803506
vt -0.08035231 0.8927845
vt -0.5723171 0.803506
vt 0.109262 1.039559
vt 0.5983357 0.9356027
vt -0.109262 1.039559
vt -0.5983357 0.9356027
vt 0.14255 1.185402
vt 0.6282949 1.066862
vt -0.14255 1.185402
vt -0.6282949 1.066862
vt 0.1801858 1.330184
vt 0.6621671 1.197166
vt -0.1801858 1.330184
vt -0.6621671 1.197166
vt 0.222136 1.473776
vt 0.6999226 1.326398
vt -0.222136 1.473776
vt -0.6999226 1.326398
vt 0.268363 1.616048
vt 0.7415266 1.454444
vt -0.268363 1.616048
vt -0.7415266 1.454444
vt 0.3188257 1.756874
vt 0.786943 1.581187
vt -0.3188257 1.756874
vt -0.786943 1.581187
vt 0.3734784 1.896127
vt 0.8361306 1.706515
vt -0.3734784 1.896127
vt -0.8361306 1.706515
vt 0.4322729 2.033683
vt 0.8890457 1.830315
vt -0.4322729 2.033683
vt -0.8890457 1.830315
vt 0.4951558 2.169419
vt 0.9456401 1.952477
vt -0.4951558 2.169419
vt -0.9456401 1.952477
vt 0.5620708 2.303212
vt 1.005864 2.072891
vt -0.5620708 2.303212
vt -1.005864 2.072891
vt 0.6329589 2.434944
vt 1.069663 2.19145
vt -0.6329589 2.434944
vt -1.069663 2.19145
vt 0.707756 2.564497
vt 1.13698 2.308047
vt -0.707756 2.564497
vt -1.13698 2.308047
vt 0.7863955 2.691753
vt 1.207756 2.422578
vt -0.7863955 2.691753
vt -1.207756 2.422578
vt 0.8688059 2.8166
vt 1.281925 2.53494
vt -0.8688059 2.8166
vt -1.281925 2.53494
vt 0.954915 2.938926
vt 1.359423 2.645034
vt -0.954915 2.938926
vt -1.359423 2.645034
vt 1.044645 3.058622
vt 1.44018 2.752759
vt -1.044645 3.058622
vt -1.44018 2.752759
vt 1.137915 3.175579
vt 1.524123 2.858021
vt -1.137915 3.175579
vt -1.524123 2.858021
vt 1.234643 3.289694
vt 1.611178 2.960724
vt -1.234643 3.289694
vt -1.611178 2.960724
vt 1.334741 3.400864
vt 1.701267 3.060777
vt -1.334741 3.400864
vt -1.701267 3.060777
vt 1.43812 3.50899
vt 1.794308 3.158091
vt -1.43812 3.50899
vt -1.794308 3.158091
vt 1.544687 3.613974
vt 1.890218 3.252577
vt -1.544687 3.613974
vt -1.890218 3.252577
vt 1.654347 3.715724
vt 1.988913 3.344152
vt -1.654347 3.715724
vt -1.988913 3.344152
vt 1.767002 3.814148
vt 2.090302 3.432733
vt -1.767002 3.814148
vt -2.090302 3.432733
vt 1.882551 3.909157
vt 2.194296 3.518241
vt -1.882551 3.909157
vt -2.194296 3.518241
vt 2.000891 4.000668
vt 2.300802 3.600601
vt -2.000891 4.000668
vt -2.300802 3.600601
vt 2.121915 4.088597
vt 2.409723 3.679737
vt -2.121915 4.088597
vt -2.409723 3.679737
vt 2.245515 4.172866
vt 2.520964 3.75558
vt -2.245515 4.172866
vt -2.520964 3.75558
vt 2.371581 4.2534
vt 2.634423 3.82806
vt -2.371581 4.2534
vt -2.634423 3.82806
vt 2.5 4.330127
vt 2.75 3.897115
vt -2.5 4.330127
vt -2.75 3.897115

vn -0.9998881 -1.783267E-09 0.01495913
vn 0.9998881 1.783394E-09 -0.01496019
vn 0 1.192093E-07 -1
vn -0.9989931 -5.348281E-09 0.04486464
vn 0.9989932 5.34807E-09 -0.04486287
vn -0.9972039 -8.908357E-09 0.07472872
vn 0.9972038 8.908525E-09 -0.07473014
vn -0.9945215 -1.246121E-08 0.1045322
vn 0.9945217 1.246095E-08 -0.1045301
vn -0.9909497 -1.60019E-08 0.1342337
vn 0.9909496 1.600199E-08 -0.1342344
vn -0.9864907 -1.952854E-08 0.1638173
vn 0.9864905 1.952866E-08 -0.1638183
vn -0.9811487 -2.303769E-08 0.1932542
vn 0.9811489 2.303761E-08 -0.1932535
vn -0.9749276 -2.652671E-08 0.2225222
vn 0.9749277 2.652671E-08 -0.2225222
vn -0.9678349 -2.999142E-08 0.2515863
vn 0.967835 2.999137E-08 -0.2515858
vn -0.9598753 -3.342952E-08 0.2804271
vn 0.9598748 3.342974E-08 -0.280429
vn -0.9510568 -3.683759E-08 0.3090161
vn 0.9510574 3.683737E-08 -0.3090143
vn -0.9413862 -4.021297E-08 0.3373309
vn 0.9413863 4.021292E-08 -0.3373304
vn -0.9308742 -4.355192E-08 0.36534
vn 0.9308736 4.35521E-08 -0.3653415
vn -0.9195271 -4.685245E-08 0.3930269
vn 0.9195268 4.685251E-08 -0.3930274
vn -0.9073586 -5.011052E-08 0.4203576
vn 0.9073594 5.011031E-08 -0.4203558
vn -0.8943784 -5.332364E-08 0.4473112
vn 0.8943776 5.332384E-08 -0.4473128
vn -0.8805954 -5.648957E-08 0.4738689
vn 0.8805955 5.648956E-08 -0.4738688
vn -0.8660252 -5.960468E-08 0.5000004
vn 0.866026 5.960454E-08 -0.4999992
vn -0.850679 -6.266661E-08 0.5256857
vn 0.8506793 6.266654E-08 -0.5256851
vn -0.834575 -6.567173E-08 0.5508944
vn 0.8345737 6.567196E-08 -0.5508964
vn -0.8177184 -6.861907E-08 0.5756186
vn 0.8177195 6.861888E-08 -0.575617
vn -0.8001341 -7.150426E-08 0.5998213
vn 0.8001336 7.150433E-08 -0.5998219
vn -0.7818315 -7.432578E-08 0.6234899
vn 0.7818314 7.432579E-08 -0.62349
vn -0.7628297 -7.708066E-08 0.6465995
vn 0.7628295 7.708069E-08 -0.6465998
vn -0.7431443 -7.976666E-08 0.6691313
vn 0.743145 7.976656E-08 -0.6691304
vn -0.7227948 -8.238111E-08 0.6910629
vn 0.7227939 8.238121E-08 -0.6910638
vn -0.701798 -8.492183E-08 0.712376
vn 0.7017992 8.492169E-08 -0.7123749
vn -0.6801734 -8.738652E-08 0.7330514
vn 0.6801717 8.73867E-08 -0.7330528
vn -0.6579381 -8.977318E-08 0.7530721
vn 0.6579399 8.9773E-08 -0.7530706
vn -0.6351162 -9.207925E-08 0.7724168
vn 0.6351143 9.207942E-08 -0.7724183
vn -0.6117226 -9.430318E-08 0.7910725
vn 0.6117245 9.4303E-08 -0.7910711
vn -0.5877863 -9.644225E-08 0.8090163
vn 0.5877857 9.644231E-08 -0.8090169
vn -0.56332 -9.849535E-08 0.826239
vn 0.5633199 9.849536E-08 -0.826239
vn -0.5383512 -1.004601E-07 0.8427207
vn 0.5383499 1.004602E-07 -0.8427216
vn -0.5128995 -1.023351E-07 0.8584488
vn 0.5129004 1.02335E-07 -0.8584483
vn 0.8660254 -5.960464E-08 0.5000001
vn 0 -1 -1.192093E-07
vn 0 1 1.192093E-07

usemtl ProBuilderDefault
f 3/3/1 4/4/1 2/2/1 1/1/1
f 7/7/2 8/8/2 6/6/2 5/5/2
f 1/1/3 6/11/3 8/10/3 3/9/3
f 4/4/4 10/13/4 9/12/4 2/2/4
f 12/16/5 7/17/5 5/15/5 11/14/5
f 10/20/6 14/21/6 13/19/6 9/18/6
f 16/24/7 12/25/7 11/23/7 15/22/7
f 14/28/8 18/29/8 17/27/8 13/26/8
f 20/32/9 16/33/9 15/31/9 19/30/9
f 18/36/10 22/37/10 21/35/10 17/34/10
f 24/40/11 20/41/11 19/39/11 23/38/11
f 22/44/12 26/45/12 25/43/12 21/42/12
f 28/48/13 24/49/13 23/47/13 27/46/13
f 26/52/14 30/53/14 29/51/14 25/50/14
f 32/56/15 28/57/15 27/55/15 31/54/15
f 30/60/16 34/61/16 33/59/16 29/58/16
f 36/64/17 32/65/17 31/63/17 35/62/17
f 34/68/18 38/69/18 37/67/18 33/66/18
f 40/72/19 36/73/19 35/71/19 39/70/19
f 38/76/20 42/77/20 41/75/20 37/74/20
f 44/80/21 40/81/21 39/79/21 43/78/21
f 42/84/22 46/85/22 45/83/22 41/82/22
f 48/88/23 44/89/23 43/87/23 47/86/23
f 46/92/24 50/93/24 49/91/24 45/90/24
f 52/96/25 48/97/25 47/95/25 51/94/25
f 50/100/26 54/101/26 53/99/26 49/98/26
f 56/104/27 52/105/27 51/103/27 55/102/27
f 54/108/28 58/109/28 57/107/28 53/106/28
f 60/112/29 56/113/29 55/111/29 59/110/29
f 58/116/30 62/117/30 61/115/30 57/114/30
f 64/120/31 60/121/31 59/119/31 63/118/31
f 62/124/32 66/125/32 65/123/32 61/122/32
f 68/127/33 64/120/33 63/118/33 67/126/33
f 66/130/34 70/131/34 69/129/34 65/128/34
f 72/134/35 68/135/35 67/133/35 71/132/35
f 70/138/36 74/139/36 73/137/36 69/136/36
f 76/142/37 72/143/37 71/141/37 75/140/37
f 74/146/38 78/147/38 77/145/38 73/144/38
f 80/150/39 76/151/39 75/149/39 79/148/39
f 78/154/40 82/155/40 81/153/40 77/152/40
f 84/158/41 80/159/41 79/157/41 83/156/41
f 82/162/42 86/163/42 85/161/42 81/160/42
f 88/166/43 84/167/43 83/165/43 87/164/43
f 86/170/44 90/171/44 89/169/44 85/168/44
f 92/174/45 88/175/45 87/173/45 91/172/45
f 90/178/46 94/179/46 93/177/46 89/176/46
f 96/182/47 92/183/47 91/181/47 95/180/47
f 94/186/48 98/187/48 97/185/48 93/184/48
f 100/190/49 96/191/49 95/189/49 99/188/49
f 98/194/50 102/195/50 101/193/50 97/192/50
f 104/198/51 100/199/51 99/197/51 103/196/51
f 102/202/52 106/203/52 105/201/52 101/200/52
f 108/206/53 104/207/53 103/205/53 107/204/53
f 106/210/54 110/211/54 109/209/54 105/208/54
f 112/214/55 108/215/55 107/213/55 111/212/55
f 110/218/56 114/219/56 113/217/56 109/216/56
f 116/222/57 112/223/57 111/221/57 115/220/57
f 114/226/58 118/227/58 117/225/58 113/224/58
f 120/230/59 116/231/59 115/229/59 119/228/59
f 118/234/60 122/235/60 121/233/60 117/232/60
f 124/238/61 120/239/61 119/237/61 123/236/61
f 122/242/62 126/243/62 125/241/62 121/240/62
f 128/246/63 124/247/63 123/245/63 127/244/63
f 126/250/64 130/251/64 129/249/64 125/248/64
f 132/254/65 128/255/65 127/253/65 131/252/65
f 130/258/66 134/259/66 133/257/66 129/256/66
f 136/262/67 132/263/67 131/261/67 135/260/67
f 134/266/68 138/267/68 137/265/68 133/264/68
f 140/270/69 136/271/69 135/269/69 139/268/69
f 138/274/70 142/275/70 141/273/70 137/272/70
f 144/278/71 140/279/71 139/277/71 143/276/71
f 143/282/72 141/283/72 142/281/72 144/280/72
f 8/11/73 7/285/73 4/284/73 3/1/73
f 5/287/74 6/288/74 1/1/74 2/286/74
f 7/285/73 12/290/73 10/289/73 4/284/73
f 11/292/74 5/287/74 2/286/74 9/291/74
f 12/290/73 16/294/73 14/293/73 10/289/73
f 15/296/74 11/292/74 9/291/74 13/295/74
f 16/294/73 20/298/73 18/297/73 14/293/73
f 19/300/74 15/296/74 13/295/74 17/299/74
f 20/298/73 24/302/73 22/301/73 18/297/73
f 23/304/74 19/300/74 17/299/74 21/303/74
f 24/302/73 28/306/73 26/305/73 22/301/73
f 27/308/74 23/304/74 21/303/74 25/307/74
f 28/306/73 32/310/73 30/309/73 26/305/73
f 31/312/74 27/308/74 25/307/74 29/311/74
f 32/310/73 36/314/73 34/313/73 30/309/73
f 35/316/74 31/312/74 29/311/74 33/315/74
f 36/314/73 40/318/73 38/317/73 34/313/73
f 39/320/74 35/316/74 33/315/74 37/319/74
f 40/318/73 44/322/73 42/321/73 38/317/73
f 43/324/74 39/320/74 37/319/74 41/323/74
f 44/322/73 48/326/73 46/325/73 42/321/73
f 47/328/74 43/324/74 41/323/74 45/327/74
f 48/326/73 52/330/73 50/329/73 46/325/73
f 51/332/74 47/328/74 45/327/74 49/331/74
f 52/330/73 56/334/73 54/333/73 50/329/73
f 55/336/74 51/332/74 49/331/74 53/335/74
f 56/334/73 60/338/73 58/337/73 54/333/73
f 59/340/74 55/336/74 53/335/74 57/339/74
f 60/338/73 64/342/73 62/341/73 58/337/73
f 63/344/74 59/340/74 57/339/74 61/343/74
f 64/342/73 68/346/73 66/345/73 62/341/73
f 67/348/74 63/344/74 61/343/74 65/347/74
f 68/346/73 72/350/73 70/349/73 66/345/73
f 71/352/74 67/348/74 65/347/74 69/351/74
f 72/350/73 76/354/73 74/353/73 70/349/73
f 75/356/74 71/352/74 69/351/74 73/355/74
f 76/354/73 80/358/73 78/357/73 74/353/73
f 79/360/74 75/356/74 73/355/74 77/359/74
f 80/358/73 84/362/73 82/361/73 78/357/73
f 83/364/74 79/360/74 77/359/74 81/363/74
f 84/362/73 88/366/73 86/365/73 82/361/73
f 87/368/74 83/364/74 81/363/74 85/367/74
f 88/366/73 92/370/73 90/369/73 86/365/73
f 91/372/74 87/368/74 85/367/74 89/371/74
f 92/370/73 96/374/73 94/373/73 90/369/73
f 95/376/74 91/372/74 89/371/74 93/375/74
f 96/374/73 100/378/73 98/377/73 94/373/73
f 99/380/74 95/376/74 93/375/74 97/379/74
f 100/378/73 104/382/73 102/381/73 98/377/73
f 103/384/74 99/380/74 97/379/74 101/383/74
f 104/382/73 108/386/73 106/385/73 102/381/73
f 107/388/74 103/384/74 101/383/74 105/387/74
f 108/386/73 112/390/73 110/389/73 106/385/73
f 111/392/74 107/388/74 105/387/74 109/391/74
f 112/390/73 116/394/73 114/393/73 110/389/73
f 115/396/74 111/392/74 109/391/74 113/395/74
f 116/394/73 120/398/73 118/397/73 114/393/73
f 119/400/74 115/396/74 113/395/74 117/399/74
f 120/398/73 124/402/73 122/401/73 118/397/73
f 123/404/74 119/400/74 117/399/74 121/403/74
f 124/402/73 128/406/73 126/405/73 122/401/73
f 127/408/74 123/404/74 121/403/74 125/407/74
f 128/406/73 132/410/73 130/409/73 126/405/73
f 131/412/74 127/408/74 125/407/74 129/411/74
f 132/410/73 136/414/73 134/413/73 130/409/73
f 135/416/74 131/412/74 129/411/74 133/415/74
f 136/414/73 140/418/73 138/417/73 134/413/73
f 139/420/74 135/416/74 133/415/74 137/419/74
f 140/418/73 144/422/73 142/421/73 138/417/73
f 143/424/74 139/420/74 137/419/74 141/423/74

