# ProBuilder 4.4.0
# https://unity3d.com/unity/features/worldbuilding/probuilder
# 24.10.2021 19:11:01

mtllib ./Obstacle60D.mtl
o Obstacle60D

g 60deg
v -5 1.5 0
v -4.996954 1.5 0.1744975
v -5 0.4999999 -1.192093E-07
v -4.996954 0.4999999 0.1744974
v -4.497259 1.5 0.1570477
v -4.5 1.5 0
v -4.497259 0.4999999 0.1570476
v -4.5 0.4999999 -1.192093E-07
v -4.987821 1.5 0.3487824
v -4.987821 0.4999999 0.3487823
v -4.489038 1.5 0.3139041
v -4.489038 0.4999999 0.313904
v -4.97261 1.5 0.5226424
v -4.97261 0.4999998 0.5226423
v -4.475348 1.5 0.4703782
v -4.475348 0.4999998 0.470378
v -4.95134 1.5 0.6958656
v -4.95134 0.4999998 0.6958655
v -4.456206 1.5 0.6262791
v -4.456206 0.4999998 0.6262789
v -4.924039 1.5 0.868241
v -4.924039 0.4999998 0.8682409
v -4.431635 1.5 0.7814169
v -4.431635 0.4999998 0.7814168
v -4.890738 1.5 1.039559
v -4.890738 0.4999998 1.039559
v -4.401664 1.5 0.9356028
v -4.401664 0.4999998 0.9356027
v -4.851479 1.5 1.20961
v -4.851479 0.4999997 1.20961
v -4.366331 1.5 1.088649
v -4.366331 0.4999998 1.088649
v -4.806308 1.5 1.378187
v -4.806308 0.4999997 1.378187
v -4.325677 1.5 1.240368
v -4.325677 0.4999997 1.240368
v -4.755283 1.5 1.545085
v -4.755283 0.4999997 1.545085
v -4.279755 1.5 1.390577
v -4.279755 0.4999997 1.390576
v -4.698463 1.5 1.710101
v -4.698463 0.4999997 1.710101
v -4.228617 1.5 1.539091
v -4.228617 0.4999997 1.539091
v -4.63592 1.5 1.873033
v -4.63592 0.4999997 1.873033
v -4.172328 1.5 1.68573
v -4.172328 0.4999997 1.68573
v -4.567727 1.5 2.033684
v -4.567727 0.4999996 2.033684
v -4.110954 1.5 1.830315
v -4.110954 0.4999997 1.830315
v -4.49397 1.5 2.191856
v -4.49397 0.4999996 2.191856
v -4.044573 1.5 1.97267
v -4.044573 0.4999996 1.97267
v -4.414738 1.5 2.347358
v -4.414738 0.4999996 2.347358
v -3.973264 1.5 2.112622
v -3.973264 0.4999996 2.112622
v -4.330127 1.5 2.5
v -4.330127 0.4999996 2.5
v -3.897114 1.5 2.25
v -3.897114 0.4999996 2.25
v -4.240241 1.5 2.649596
v -4.240241 0.4999996 2.649596
v -3.816216 1.5 2.384637
v -3.816216 0.4999996 2.384637
v -4.145188 1.5 2.795965
v -4.145188 0.4999996 2.795965
v -3.730669 1.5 2.516368
v -3.730669 0.4999996 2.516368
v -4.045085 1.5 2.938926
v -4.045085 0.4999995 2.938926
v -3.640577 1.5 2.645034
v -3.640577 0.4999996 2.645034
v -3.940054 1.5 3.078308
v -3.940054 0.4999995 3.078308
v -3.546048 1.5 2.770477
v -3.546048 0.4999996 2.770477
v -3.830222 1.5 3.213938
v -3.830222 0.4999995 3.213938
v -3.4472 1.5 2.892544
v -3.4472 0.4999995 2.892544
v -3.715724 1.5 3.345654
v -3.715724 0.4999995 3.345653
v -3.344152 1.5 3.011088
v -3.344152 0.4999995 3.011088
v -3.596699 1.5 3.473292
v -3.596699 0.4999995 3.473292
v -3.237029 1.5 3.125963
v -3.237029 0.4999995 3.125963
v -3.473292 1.5 3.596699
v -3.473292 0.4999995 3.596699
v -3.125963 1.5 3.23703
v -3.125963 0.4999995 3.237029
v -3.345653 1.5 3.715725
v -3.345653 0.4999994 3.715725
v -3.011087 1.5 3.344152
v -3.011087 0.4999995 3.344152
v -3.213938 1.5 3.830223
v -3.213938 0.4999994 3.830222
v -2.892544 1.5 3.447201
v -2.892544 0.4999995 3.4472
v -3.078308 1.5 3.940054
v -3.078308 0.4999994 3.940054
v -2.770477 1.5 3.546049
v -2.770477 0.4999995 3.546048
v -2.938926 1.5 4.045085
v -2.938926 0.4999994 4.045085
v -2.645034 1.5 3.640577
v -2.645034 0.4999994 3.640577
v -2.795964 1.5 4.145188
v -2.795964 0.4999994 4.145188
v -2.516368 1.5 3.730669
v -2.516368 0.4999994 3.730669
v -2.649596 1.5 4.240241
v -2.649596 0.4999994 4.240241
v -2.384637 1.5 3.816217
v -2.384637 0.4999994 3.816217
v -2.5 1.5 4.330128
v -2.5 0.4999994 4.330128
v -2.25 1.5 3.897115
v -2.25 0.4999994 3.897115

vt 0 0
vt 0 0.1745241
vt 1 0
vt 1 0.1745241
vt 0 0.1657981
vt 0 0.008726389
vt -1 0.1657981
vt -1 0.008726389
vt 0 1
vt 0.5 1
vt 0.5 0
vt 0 0.1744178
vt 0 0.3489418
vt 1 0.1744178
vt 1 0.3489418
vt 0 0.3402146
vt 0 0.183143
vt -1 0.3402146
vt -1 0.183143
vt 0 0.5230407
vt 1 0.5230407
vt 0 0.5143155
vt 0 0.3572437
vt -1 0.5143155
vt -1 0.3572437
vt 0 0.5220847
vt 0 0.6966087
vt 1 0.5220847
vt 1 0.6966087
vt 0 0.6878824
vt 0 0.5308107
vt -1 0.6878824
vt -1 0.5308107
vt 0 0.6949104
vt 0 0.8694345
vt 1 0.6949104
vt 1 0.8694345
vt 0 0.8607082
vt 0 0.7036366
vt -1 0.8607082
vt -1 0.7036366
vt 0 0.8667829
vt 0 1.041307
vt 1 0.8667829
vt 1 1.041307
vt 0 1.032581
vt 0 0.875509
vt -1 1.032581
vt -1 0.875509
vt 0 1.037493
vt 0 1.212017
vt 1 1.037493
vt 1 1.212017
vt 0 1.203292
vt 0 1.04622
vt -1 1.203292
vt -1 1.04622
vt 0 1.206833
vt 0 1.381357
vt 1 1.206833
vt 1 1.381357
vt 0 1.372631
vt 0 1.21556
vt -1 1.372631
vt -1 1.21556
vt 0 1.374597
vt 0 1.549121
vt 1 1.374597
vt 1 1.549121
vt 0 1.540393
vt 0 1.383322
vt -1 1.540393
vt -1 1.383322
vt 0 1.540578
vt 0 1.715102
vt 1 1.540578
vt 1 1.715102
vt 0 1.706377
vt -1 1.706377
vt -1 1.549305
vt 0 1.704579
vt 0 1.879102
vt 1 1.704579
vt 1 1.879102
vt 0 1.870375
vt 0 1.713304
vt -1 1.870375
vt -1 1.713304
vt 0 1.866392
vt 0 2.040917
vt 1 1.866392
vt 1 2.040917
vt 0 2.032192
vt 0 1.87512
vt -1 2.032192
vt -1 1.87512
vt 0 2.02583
vt 0 2.200354
vt 1 2.02583
vt 1 2.200354
vt 0 2.191627
vt 0 2.034555
vt -1 2.191627
vt -1 2.034555
vt 0 2.182689
vt 0 2.357213
vt 1 2.182689
vt 1 2.357213
vt 0 2.348488
vt 0 2.191417
vt -1 2.348488
vt -1 2.191417
vt 0 2.336786
vt 0 2.51131
vt 1 2.336786
vt 1 2.51131
vt 0 2.502584
vt 0 2.345512
vt -1 2.502584
vt -1 2.345512
vt 0 2.48793
vt 0 2.662453
vt 1 2.48793
vt 1 2.662453
vt 0 2.653726
vt 0 2.496655
vt -1 2.653726
vt -1 2.496655
vt 0 2.635933
vt 0 2.810457
vt 1 2.635933
vt 1 2.810457
vt 0 2.801731
vt 0 2.64466
vt -1 2.801731
vt -1 2.64466
vt 0 2.78062
vt 0 2.955144
vt 1 2.78062
vt 1 2.955144
vt 0 2.946418
vt 0 2.789346
vt -1 2.946418
vt -1 2.789346
vt 0 2.921815
vt 0 3.096339
vt 1 2.921815
vt 1 3.096339
vt 0 3.087611
vt 0 2.930539
vt -1 3.087611
vt -1 2.930539
vt 0 3.059337
vt 0 3.23386
vt 1 3.059337
vt 1 3.23386
vt 0 3.225137
vt 0 3.068065
vt -1 3.225137
vt -1 3.068065
vt 0 3.193034
vt 0 3.367558
vt 1 3.193034
vt 1 3.367558
vt 0 3.358832
vt 0 3.20176
vt -1 3.358832
vt -1 3.20176
vt 0 3.322731
vt 0 3.497255
vt 1 3.322731
vt 1 3.497255
vt 0 3.488527
vt 0 3.331455
vt -1 3.488527
vt -1 3.331455
vt -3.448272 0
vt -3.622796 0
vt -3.448272 1
vt -3.622796 1
vt 3.61407 0
vt 3.456998 0
vt 3.61407 1
vt 3.456998 1
vt -3.569507 0
vt -3.744032 0
vt -3.569507 1
vt -3.744032 1
vt 3.735304 0
vt 3.578232 0
vt 3.735304 1
vt 3.578232 1
vt -3.686286 0
vt -3.860809 0
vt -3.686286 1
vt -3.860809 1
vt 3.852084 0
vt 3.695013 0
vt 3.852084 1
vt 3.695013 1
vt -3.798466 0
vt -3.97299 0
vt -3.798466 1
vt -3.97299 1
vt 3.964264 0
vt 3.807193 0
vt 3.964264 1
vt 3.807193 1
vt -3.905917 0
vt -4.080441 0
vt -3.905917 1
vt -4.080441 1
vt 4.071716 0
vt 3.914644 0
vt 4.071716 1
vt 3.914644 1
vt -4.008497 0
vt -4.183021 0
vt -4.008497 1
vt -4.183021 1
vt 4.174293 0
vt 4.01722 0
vt 4.174293 1
vt 4.01722 1
vt -4.106091 0
vt -4.280616 0
vt -4.106091 1
vt -4.280616 1
vt 4.27189 0
vt 4.114819 0
vt 4.27189 1
vt 4.114819 1
vt -4.198575 0
vt -4.3731 0
vt -4.198575 1
vt -4.3731 1
vt 4.364373 0
vt 4.207301 0
vt 4.364373 1
vt 4.207301 1
vt -1 2
vt -1 2.5
vt 0 2
vt 0 2.5
vt 0.003046036 0.1744975
vt 0.5027413 0.1570477
vt -0.003046036 0.1744975
vt -0.5027413 0.1570477
vt -0.5 0
vt 0.01217937 0.3487824
vt 0.5109615 0.3139041
vt -0.01217937 0.3487824
vt -0.5109615 0.3139041
vt 0.02739048 0.5226423
vt 0.5246515 0.4703781
vt -0.02739048 0.5226423
vt -0.5246515 0.4703781
vt 0.0486598 0.6958655
vt 0.5437937 0.626279
vt -0.0486598 0.6958655
vt -0.5437937 0.626279
vt 0.07596111 0.8682409
vt 0.5683651 0.7814168
vt -0.07596111 0.8682409
vt -0.5683651 0.7814168
vt 0.109262 1.039559
vt 0.5983357 0.9356027
vt -0.109262 1.039559
vt -0.5983357 0.9356027
vt 0.1485214 1.20961
vt 0.6336694 1.088649
vt -0.1485214 1.20961
vt -0.6336694 1.088649
vt 0.1936917 1.378187
vt 0.6743226 1.240368
vt -0.1936917 1.378187
vt -0.6743226 1.240368
vt 0.2447171 1.545085
vt 0.7202454 1.390576
vt -0.2447171 1.545085
vt -0.7202454 1.390576
vt 0.301537 1.710101
vt 0.7713833 1.539091
vt -0.301537 1.710101
vt -0.7713833 1.539091
vt 0.3640804 1.873033
vt 0.8276725 1.68573
vt -0.3640804 1.873033
vt -0.8276725 1.68573
vt 0.4322729 2.033683
vt 0.8890457 1.830315
vt -0.4322729 2.033683
vt -0.8890457 1.830315
vt 0.5060296 2.191856
vt 0.9554267 1.97267
vt -0.5060296 2.191856
vt -0.9554267 1.97267
vt 0.5852623 2.347358
vt 1.026736 2.112622
vt -0.5852623 2.347358
vt -1.026736 2.112622
vt 0.6698732 2.5
vt 1.102886 2.25
vt -0.6698732 2.5
vt -1.102886 2.25
vt 0.7597594 2.649596
vt 1.183784 2.384637
vt -0.7597594 2.649596
vt -1.183784 2.384637
vt 0.8548121 2.795964
vt 1.269331 2.516368
vt -0.8548121 2.795964
vt -1.269331 2.516368
vt 0.954915 2.938926
vt 1.359423 2.645034
vt -0.954915 2.938926
vt -1.359423 2.645034
vt 1.059946 3.078308
vt 1.453952 2.770477
vt -1.059946 3.078308
vt -1.453952 2.770477
vt 1.169778 3.213938
vt 1.5528 2.892544
vt -1.169778 3.213938
vt -1.5528 2.892544
vt 1.284276 3.345653
vt 1.655848 3.011088
vt -1.284276 3.345653
vt -1.655848 3.011088
vt 1.403301 3.473292
vt 1.762971 3.125963
vt -1.403301 3.473292
vt -1.762971 3.125963
vt 1.526708 3.596699
vt 1.874037 3.237029
vt -1.526708 3.596699
vt -1.874037 3.237029
vt 1.654347 3.715724
vt 1.988913 3.344152
vt -1.654347 3.715724
vt -1.988913 3.344152
vt 1.786062 3.830222
vt 2.107456 3.4472
vt -1.786062 3.830222
vt -2.107456 3.4472
vt 1.921692 3.940053
vt 2.229523 3.546048
vt -1.921692 3.940053
vt -2.229523 3.546048
vt 2.061074 4.045085
vt 2.354966 3.640577
vt -2.061074 4.045085
vt -2.354966 3.640577
vt 2.204036 4.145188
vt 2.483632 3.730669
vt -2.204036 4.145188
vt -2.483632 3.730669
vt 2.350404 4.240241
vt 2.615363 3.816216
vt -2.350404 4.240241
vt -2.615363 3.816216
vt 2.5 4.330127
vt 2.75 3.897115
vt -2.5 4.330127
vt -2.75 3.897115

vn -0.9998477 -2.080606E-09 0.01745339
vn 0.9998477 2.080533E-09 -0.01745278
vn 0 1.192093E-07 -1
vn -0.9986297 -6.238561E-09 0.05233285
vn 0.9986296 6.238706E-09 -0.05233407
vn -0.9961945 -1.039E-08 0.08715763
vn 0.9961945 1.039E-08 -0.08715761
vn -0.992546 -1.452808E-08 0.1218704
vn 0.9925462 1.45279E-08 -0.1218689
vn -0.9876886 -1.864827E-08 0.156433
vn 0.9876884 1.864845E-08 -0.1564345
vn -0.981627 -2.274627E-08 0.1908096
vn 0.9816273 2.274617E-08 -0.1908087
vn -0.97437 -2.68163E-08 0.2249515
vn 0.9743698 2.68164E-08 -0.2249523
vn -0.9659256 -3.085373E-08 0.2588199
vn 0.9659257 3.08537E-08 -0.2588196
vn -0.9563056 -3.485312E-08 0.2923692
vn 0.9563057 3.485304E-08 -0.2923686
vn -0.9455178 -3.881103E-08 0.3255705
vn 0.9455177 3.881105E-08 -0.3255707
vn -0.9335813 -4.272052E-08 0.3583657
vn 0.9335811 4.27206E-08 -0.3583664
vn -0.920504 -4.657904E-08 0.3907334
vn 0.9205039 4.657906E-08 -0.3907335
vn -0.9063085 -5.037986E-08 0.422617
vn 0.9063088 5.037978E-08 -0.4226162
vn -0.8910055 -5.412011E-08 0.4539925
vn 0.8910058 5.412008E-08 -0.4539922
vn -0.8746198 -5.779379E-08 0.4848095
vn 0.8746201 5.779372E-08 -0.484809
vn -0.8571681 -6.139718E-08 0.5150369
vn 0.8571674 6.139729E-08 -0.5150379
vn -0.8386704 -6.492606E-08 0.5446393
vn 0.8386708 6.492599E-08 -0.5446388
vn -0.819152 -6.837565E-08 0.5735766
vn 0.8191521 6.837563E-08 -0.5735764
vn -0.7986367 -7.174177E-08 0.6018136
vn 0.7986357 7.174192E-08 -0.6018149
vn -0.777144 -7.502113E-08 0.6293229
vn 0.7771451 7.502096E-08 -0.6293215
vn -0.7547102 -7.820825E-08 0.6560584
vn 0.7547105 7.820821E-08 -0.6560581
vn -0.7313541 -8.130049E-08 0.681998
vn 0.7313532 8.13006E-08 -0.6819989
vn -0.7071068 -8.42937E-08 0.7071068
vn 0.7071068 8.42937E-08 -0.7071068
vn -0.6819987 -8.718411E-08 0.7313534
vn 0.6819981 8.718418E-08 -0.731354
vn -0.6560588 -8.996842E-08 0.75471
vn 0.6560594 8.996835E-08 -0.7547094
vn -0.6293198 -9.264308E-08 0.7771466
vn 0.6293197 9.264308E-08 -0.7771466
vn -0.6018159 -9.520469E-08 0.7986349
vn 0.6018165 9.520464E-08 -0.7986345
vn -0.5735759 -9.765058E-08 0.8191526
vn 0.5735746 9.765068E-08 -0.8191534
vn -0.5446393 -9.997731E-08 0.8386706
vn 0.5446398 9.997726E-08 -0.8386702
vn -0.5150383 -1.021823E-07 0.8571673
vn 0.5150383 1.021823E-07 -0.8571673
vn 0.8660254 -5.960464E-08 0.5000001
vn 0 -1 -1.192093E-07
vn 0 1 1.192093E-07

usemtl ProBuilderDefault
f 3/3/1 4/4/1 2/2/1 1/1/1
f 7/7/2 8/8/2 6/6/2 5/5/2
f 1/1/3 6/11/3 8/10/3 3/9/3
f 4/14/4 10/15/4 9/13/4 2/12/4
f 12/18/5 7/19/5 5/17/5 11/16/5
f 10/15/6 14/21/6 13/20/6 9/13/6
f 16/24/7 12/25/7 11/23/7 15/22/7
f 14/28/8 18/29/8 17/27/8 13/26/8
f 20/32/9 16/33/9 15/31/9 19/30/9
f 18/36/10 22/37/10 21/35/10 17/34/10
f 24/40/11 20/41/11 19/39/11 23/38/11
f 22/44/12 26/45/12 25/43/12 21/42/12
f 28/48/13 24/49/13 23/47/13 27/46/13
f 26/52/14 30/53/14 29/51/14 25/50/14
f 32/56/15 28/57/15 27/55/15 31/54/15
f 30/60/16 34/61/16 33/59/16 29/58/16
f 36/64/17 32/65/17 31/63/17 35/62/17
f 34/68/18 38/69/18 37/67/18 33/66/18
f 40/72/19 36/73/19 35/71/19 39/70/19
f 38/76/20 42/77/20 41/75/20 37/74/20
f 44/79/21 40/80/21 39/67/21 43/78/21
f 42/83/22 46/84/22 45/82/22 41/81/22
f 48/87/23 44/88/23 43/86/23 47/85/23
f 46/91/24 50/92/24 49/90/24 45/89/24
f 52/95/25 48/96/25 47/94/25 51/93/25
f 50/99/26 54/100/26 53/98/26 49/97/26
f 56/103/27 52/104/27 51/102/27 55/101/27
f 54/107/28 58/108/28 57/106/28 53/105/28
f 60/111/29 56/112/29 55/110/29 59/109/29
f 58/115/30 62/116/30 61/114/30 57/113/30
f 64/119/31 60/120/31 59/118/31 63/117/31
f 62/123/32 66/124/32 65/122/32 61/121/32
f 68/127/33 64/128/33 63/126/33 67/125/33
f 66/131/34 70/132/34 69/130/34 65/129/34
f 72/135/35 68/136/35 67/134/35 71/133/35
f 70/139/36 74/140/36 73/138/36 69/137/36
f 76/143/37 72/144/37 71/142/37 75/141/37
f 74/147/38 78/148/38 77/146/38 73/145/38
f 80/151/39 76/152/39 75/150/39 79/149/39
f 78/155/40 82/156/40 81/154/40 77/153/40
f 84/159/41 80/160/41 79/158/41 83/157/41
f 82/163/42 86/164/42 85/162/42 81/161/42
f 88/167/43 84/168/43 83/166/43 87/165/43
f 86/171/44 90/172/44 89/170/44 85/169/44
f 92/175/45 88/176/45 87/174/45 91/173/45
f 90/179/46 94/180/46 93/178/46 89/177/46
f 96/183/47 92/184/47 91/182/47 95/181/47
f 94/187/48 98/188/48 97/186/48 93/185/48
f 100/191/49 96/192/49 95/190/49 99/189/49
f 98/195/50 102/196/50 101/194/50 97/193/50
f 104/199/51 100/200/51 99/198/51 103/197/51
f 102/203/52 106/204/52 105/202/52 101/201/52
f 108/207/53 104/208/53 103/206/53 107/205/53
f 106/211/54 110/212/54 109/210/54 105/209/54
f 112/215/55 108/216/55 107/214/55 111/213/55
f 110/219/56 114/220/56 113/218/56 109/217/56
f 116/223/57 112/224/57 111/222/57 115/221/57
f 114/227/58 118/228/58 117/226/58 113/225/58
f 120/231/59 116/232/59 115/230/59 119/229/59
f 118/235/60 122/236/60 121/234/60 117/233/60
f 124/239/61 120/240/61 119/238/61 123/237/61
f 123/243/62 121/244/62 122/242/62 124/241/62
f 8/11/63 7/246/63 4/245/63 3/1/63
f 5/248/64 6/249/64 1/1/64 2/247/64
f 7/246/63 12/251/63 10/250/63 4/245/63
f 11/253/64 5/248/64 2/247/64 9/252/64
f 12/251/63 16/255/63 14/254/63 10/250/63
f 15/257/64 11/253/64 9/252/64 13/256/64
f 16/255/63 20/259/63 18/258/63 14/254/63
f 19/261/64 15/257/64 13/256/64 17/260/64
f 20/259/63 24/263/63 22/262/63 18/258/63
f 23/265/64 19/261/64 17/260/64 21/264/64
f 24/263/63 28/267/63 26/266/63 22/262/63
f 27/269/64 23/265/64 21/264/64 25/268/64
f 28/267/63 32/271/63 30/270/63 26/266/63
f 31/273/64 27/269/64 25/268/64 29/272/64
f 32/271/63 36/275/63 34/274/63 30/270/63
f 35/277/64 31/273/64 29/272/64 33/276/64
f 36/275/63 40/279/63 38/278/63 34/274/63
f 39/281/64 35/277/64 33/276/64 37/280/64
f 40/279/63 44/283/63 42/282/63 38/278/63
f 43/285/64 39/281/64 37/280/64 41/284/64
f 44/283/63 48/287/63 46/286/63 42/282/63
f 47/289/64 43/285/64 41/284/64 45/288/64
f 48/287/63 52/291/63 50/290/63 46/286/63
f 51/293/64 47/289/64 45/288/64 49/292/64
f 52/291/63 56/295/63 54/294/63 50/290/63
f 55/297/64 51/293/64 49/292/64 53/296/64
f 56/295/63 60/299/63 58/298/63 54/294/63
f 59/301/64 55/297/64 53/296/64 57/300/64
f 60/299/63 64/303/63 62/302/63 58/298/63
f 63/305/64 59/301/64 57/300/64 61/304/64
f 64/303/63 68/307/63 66/306/63 62/302/63
f 67/309/64 63/305/64 61/304/64 65/308/64
f 68/307/63 72/311/63 70/310/63 66/306/63
f 71/313/64 67/309/64 65/308/64 69/312/64
f 72/311/63 76/315/63 74/314/63 70/310/63
f 75/317/64 71/313/64 69/312/64 73/316/64
f 76/315/63 80/319/63 78/318/63 74/314/63
f 79/321/64 75/317/64 73/316/64 77/320/64
f 80/319/63 84/323/63 82/322/63 78/318/63
f 83/325/64 79/321/64 77/320/64 81/324/64
f 84/323/63 88/327/63 86/326/63 82/322/63
f 87/329/64 83/325/64 81/324/64 85/328/64
f 88/327/63 92/331/63 90/330/63 86/326/63
f 91/333/64 87/329/64 85/328/64 89/332/64
f 92/331/63 96/335/63 94/334/63 90/330/63
f 95/337/64 91/333/64 89/332/64 93/336/64
f 96/335/63 100/339/63 98/338/63 94/334/63
f 99/341/64 95/337/64 93/336/64 97/340/64
f 100/339/63 104/343/63 102/342/63 98/338/63
f 103/345/64 99/341/64 97/340/64 101/344/64
f 104/343/63 108/347/63 106/346/63 102/342/63
f 107/349/64 103/345/64 101/344/64 105/348/64
f 108/347/63 112/351/63 110/350/63 106/346/63
f 111/353/64 107/349/64 105/348/64 109/352/64
f 112/351/63 116/355/63 114/354/63 110/350/63
f 115/357/64 111/353/64 109/352/64 113/356/64
f 116/355/63 120/359/63 118/358/63 114/354/63
f 119/361/64 115/357/64 113/356/64 117/360/64
f 120/359/63 124/363/63 122/362/63 118/358/63
f 123/365/64 119/361/64 117/360/64 121/364/64

