# ProBuilder 4.4.0
# https://unity3d.com/unity/features/worldbuilding/probuilder
# 24.10.2021 12:28:49

mtllib ./Obstacle45D.mtl
o Obstacle45D

g Arch
v -5 1.5 0
v -4.957224 1.5 0.652631
v -5 0.4999999 -1.192093E-07
v -4.957224 0.4999998 0.6526309
v -4.461502 1.5 0.587368
v -4.5 1.5 0
v -4.461502 0.4999998 0.5873678
v -4.5 0.4999999 -1.192093E-07
v -4.829629 1.5 1.294095
v -4.829629 0.4999997 1.294095
v -4.346666 1.5 1.164686
v -4.346666 0.4999997 1.164686
v -4.619398 1.5 1.913418
v -4.619398 0.4999996 1.913417
v -4.157458 1.5 1.722076
v -4.157458 0.4999997 1.722076
v -4.330127 1.5 2.5
v -4.330127 0.4999996 2.5
v -3.897114 1.5 2.25
v -3.897114 0.4999996 2.25
v -3.966767 1.5 3.043808
v -3.966767 0.4999995 3.043807
v -3.57009 1.5 2.739427
v -3.57009 0.4999996 2.739427
v -3.535534 1.5 3.535534
v -3.535534 0.4999995 3.535534
v -3.18198 1.5 3.181981
v -3.18198 0.4999995 3.181981

vt 0 0
vt 0 0.6540313
vt 1 0
vt 1 0.6540313
vt 0 0.6213295
vt 0 0.0327014
vt -1 0.6213295
vt -1 0.0327014
vt 0 1
vt 0.5 1
vt 0.5 0
vt 0 0.648436
vt 0 1.302467
vt 1 0.648436
vt 1 1.302467
vt 0 1.269766
vt 0 0.6811376
vt -1 1.269766
vt -1 0.6811376
vt 0 1.280182
vt 0 1.934213
vt 1 1.280182
vt 1 1.934213
vt 0 1.901512
vt 0 1.312883
vt -1 1.901512
vt -1 1.312883
vt 0 1.884428
vt 0 2.538459
vt 1 1.884428
vt 1 2.538459
vt 0 2.505758
vt 0 1.91713
vt -1 2.505758
vt -1 1.91713
vt 0 2.450836
vt 0 3.104867
vt 1 2.450836
vt 1 3.104867
vt 0 3.072165
vt 0 2.483537
vt -1 3.072165
vt -1 2.483537
vt 0 2.969714
vt 0 3.623745
vt 1 2.969714
vt 1 3.623745
vt 0 3.591043
vt 0 3.002415
vt -1 3.591043
vt -1 3.002415
vt 0.9644659 1
vt 1.464466 1
vt 0.9644659 0
vt 1.464466 0
vt 0.04277563 0.652631
vt 0.5384979 0.5873679
vt -0.04277563 0.652631
vt -0.5384979 0.5873679
vt -0.5 0
vt 0.1703711 1.294095
vt 0.6533337 1.164686
vt -0.1703711 1.294095
vt -0.6533337 1.164686
vt 0.3806024 1.913417
vt 0.8425422 1.722076
vt -0.3806024 1.913417
vt -0.8425422 1.722076
vt 0.6698732 2.5
vt 1.102886 2.25
vt -0.6698732 2.5
vt -1.102886 2.25
vt 1.033233 3.043807
vt 1.42991 2.739426
vt -1.033233 3.043807
vt -1.42991 2.739426
vt 1.464466 3.535534
vt 1.81802 3.18198
vt -1.464466 3.535534
vt -1.81802 3.18198

vn -0.9978589 -7.79665E-09 0.06540304
vn 0.9978589 7.79662E-09 -0.0654028
vn 0 1.192093E-07 -1
vn -0.9807852 -2.325662E-08 0.1950907
vn 0.9807853 2.325659E-08 -0.1950905
vn -0.9469302 -3.831854E-08 0.3214392
vn 0.9469301 3.83186E-08 -0.3214397
vn -0.8968726 -5.272497E-08 0.4422892
vn 0.8968727 5.272492E-08 -0.4422888
vn -0.8314697 -6.622913E-08 0.5555702
vn 0.8314694 6.622916E-08 -0.5555705
vn -0.7518399 -7.860012E-08 0.6593457
vn 0.7518398 7.860015E-08 -0.6593459
vn 0.7071068 -8.42937E-08 0.7071068
vn 0 -1 -1.192093E-07
vn 0 1 1.192093E-07

usemtl ProBuilderDefault
f 3/3/1 4/4/1 2/2/1 1/1/1
f 7/7/2 8/8/2 6/6/2 5/5/2
f 1/1/3 6/11/3 8/10/3 3/9/3
f 4/14/4 10/15/4 9/13/4 2/12/4
f 12/18/5 7/19/5 5/17/5 11/16/5
f 10/22/6 14/23/6 13/21/6 9/20/6
f 16/26/7 12/27/7 11/25/7 15/24/7
f 14/30/8 18/31/8 17/29/8 13/28/8
f 20/34/9 16/35/9 15/33/9 19/32/9
f 18/38/10 22/39/10 21/37/10 17/36/10
f 24/42/11 20/43/11 19/41/11 23/40/11
f 22/46/12 26/47/12 25/45/12 21/44/12
f 28/50/13 24/51/13 23/49/13 27/48/13
f 27/54/14 25/55/14 26/53/14 28/52/14
f 8/11/15 7/57/15 4/56/15 3/1/15
f 5/59/16 6/60/16 1/1/16 2/58/16
f 7/57/15 12/62/15 10/61/15 4/56/15
f 11/64/16 5/59/16 2/58/16 9/63/16
f 12/62/15 16/66/15 14/65/15 10/61/15
f 15/68/16 11/64/16 9/63/16 13/67/16
f 16/66/15 20/70/15 18/69/15 14/65/15
f 19/72/16 15/68/16 13/67/16 17/71/16
f 20/70/15 24/74/15 22/73/15 18/69/15
f 23/76/16 19/72/16 17/71/16 21/75/16
f 24/74/15 28/78/15 26/77/15 22/73/15
f 27/80/16 23/76/16 21/75/16 25/79/16

