# ProBuilder 4.4.0
# https://unity3d.com/unity/features/worldbuilding/probuilder
# 24.10.2021 19:10:18

mtllib ./Obstacle180D.mtl
o Obstacle180D

g 180deg
v -5 1.5 0
v -4.97261 1.5 0.5226424
v -5 0.4999999 -1.192093E-07
v -4.97261 0.4999998 0.5226423
v -4.475348 1.5 0.4703782
v -4.5 1.5 0
v -4.475348 0.4999998 0.470378
v -4.5 0.4999999 -1.192093E-07
v -4.890738 1.5 1.039559
v -4.890738 0.4999998 1.039559
v -4.401664 1.5 0.9356028
v -4.401664 0.4999998 0.9356027
v -4.755283 1.5 1.545085
v -4.755283 0.4999997 1.545085
v -4.279755 1.5 1.390577
v -4.279755 0.4999997 1.390576
v -4.567727 1.5 2.033684
v -4.567727 0.4999996 2.033684
v -4.110954 1.5 1.830315
v -4.110954 0.4999997 1.830315
v -4.330127 1.5 2.5
v -4.330127 0.4999996 2.5
v -3.897114 1.5 2.25
v -3.897114 0.4999996 2.25
v -4.045085 1.5 2.938926
v -4.045085 0.4999995 2.938926
v -3.640577 1.5 2.645034
v -3.640577 0.4999996 2.645034
v -3.715724 1.5 3.345654
v -3.715724 0.4999995 3.345653
v -3.344152 1.5 3.011088
v -3.344152 0.4999995 3.011088
v -3.345653 1.5 3.715725
v -3.345653 0.4999994 3.715725
v -3.011087 1.5 3.344152
v -3.011087 0.4999995 3.344152
v -2.938926 1.5 4.045085
v -2.938926 0.4999994 4.045085
v -2.645034 1.5 3.640577
v -2.645034 0.4999994 3.640577
v -2.5 1.5 4.330128
v -2.5 0.4999994 4.330128
v -2.25 1.5 3.897115
v -2.25 0.4999994 3.897115
v -2.033683 1.499999 4.567728
v -2.033683 0.4999993 4.567728
v -1.830315 1.5 4.110955
v -1.830315 0.4999994 4.110955
v -1.545085 1.499999 4.755283
v -1.545085 0.4999993 4.755283
v -1.390576 1.5 4.279755
v -1.390576 0.4999994 4.279755
v -1.039558 1.499999 4.890738
v -1.039558 0.4999993 4.890738
v -0.9356022 1.5 4.401665
v -0.9356022 0.4999993 4.401665
v -0.5226421 1.499999 4.97261
v -0.5226421 0.4999993 4.97261
v -0.4703779 1.5 4.475349
v -0.4703779 0.4999993 4.475349
v 0 1.499999 5
v 0 0.4999993 5
v 0 1.5 4.5
v 0 0.4999993 4.5
v 0.5226426 1.499999 4.97261
v 0.5226426 0.4999993 4.97261
v 0.4703784 1.5 4.475349
v 0.4703784 0.4999993 4.475349
v 1.039558 1.499999 4.890738
v 1.039558 0.4999993 4.890738
v 0.9356022 1.5 4.401665
v 0.9356022 0.4999993 4.401665
v 1.545085 1.499999 4.755283
v 1.545085 0.4999993 4.755283
v 1.390576 1.5 4.279755
v 1.390576 0.4999994 4.279755
v 2.033683 1.499999 4.567728
v 2.033683 0.4999993 4.567728
v 1.830315 1.5 4.110955
v 1.830315 0.4999994 4.110955
v 2.5 1.5 4.330127
v 2.5 0.4999994 4.330127
v 2.25 1.5 3.897115
v 2.25 0.4999994 3.897115
v 2.938926 1.5 4.045085
v 2.938926 0.4999994 4.045085
v 2.645033 1.5 3.640577
v 2.645033 0.4999994 3.640577
v 3.345654 1.5 3.715724
v 3.345654 0.4999994 3.715724
v 3.011088 1.5 3.344152
v 3.011088 0.4999995 3.344152
v 3.715724 1.5 3.345654
v 3.715724 0.4999995 3.345653
v 3.344151 1.5 3.011088
v 3.344151 0.4999995 3.011088
v 4.045086 1.5 2.938926
v 4.045086 0.4999995 2.938926
v 3.640577 1.5 2.645034
v 3.640577 0.4999996 2.645034
v 4.330127 1.5 2.5
v 4.330127 0.4999996 2.5
v 3.897114 1.5 2.25
v 3.897114 0.4999996 2.25
v 4.567728 1.5 2.033683
v 4.567728 0.4999996 2.033683
v 4.110954 1.5 1.830315
v 4.110954 0.4999997 1.830315
v 4.755282 1.5 1.545085
v 4.755282 0.4999997 1.545085
v 4.279755 1.5 1.390577
v 4.279755 0.4999997 1.390577
v 4.890738 1.5 1.039558
v 4.890738 0.4999998 1.039558
v 4.401665 1.5 0.9356024
v 4.401665 0.4999998 0.9356022
v 4.97261 1.5 0.5226426
v 4.97261 0.4999998 0.5226424
v 4.475348 1.5 0.4703783
v 4.475348 0.4999998 0.4703782
v 5 1.5 -4.37114E-07
v 5 0.4999999 -5.563232E-07
v 4.5 1.5 -3.934026E-07
v 4.5 0.4999999 -5.126118E-07

vt 0 0
vt 0 0.5233595
vt 1 0
vt 1 0.5233595
vt 0 0.4971916
vt 0 0.02616804
vt -1 0.4971916
vt -1 0.02616804
vt 0 1
vt 0.5 1
vt 0.5 0
vt 0 0.5204926
vt 0 1.043852
vt 1 0.5204926
vt 1 1.043852
vt 0 1.017684
vt 0 0.5466604
vt -1 1.017684
vt -1 0.5466604
vt 0 1.032416
vt 0 1.555775
vt 1 1.032416
vt 1 1.555775
vt 0 1.529607
vt 0 1.058583
vt -1 1.529607
vt -1 1.058583
vt 0 1.53016
vt 0 2.053519
vt 1 1.53016
vt 1 2.053519
vt 0 2.027352
vt 0 1.556328
vt -1 2.027352
vt -1 1.556328
vt 0 2.008273
vt 0 2.531632
vt 1 2.008273
vt 1 2.531632
vt 0 2.505464
vt 0 2.034441
vt -1 2.505464
vt -1 2.034441
vt 0 2.461516
vt 0 2.984875
vt 1 2.461516
vt 1 2.984875
vt 0 2.958707
vt 0 2.487684
vt -1 2.958707
vt -1 2.487684
vt 0 2.884922
vt 0 3.408282
vt 1 2.884922
vt 1 3.408282
vt 0 3.382114
vt 0 2.91109
vt -1 3.382114
vt -1 2.91109
vt -3.273855 0
vt -3.797215 0
vt -3.273855 1
vt -3.797215 1
vt 3.771046 0
vt 3.300022 0
vt 3.771046 1
vt 3.300022 1
vt -3.624051 0
vt -4.147409 0
vt -3.624051 1
vt -4.147409 1
vt 4.121242 0
vt 3.650219 0
vt 4.121242 1
vt 3.650219 1
vt -3.931673 0
vt -4.455033 0
vt -3.931673 1
vt -4.455033 1
vt 4.428864 0
vt 3.95784 0
vt 4.428864 1
vt 3.95784 1
vt -4.193354 0
vt -4.716713 0
vt -4.193354 1
vt -4.716713 1
vt 4.690545 0
vt 4.219521 0
vt 4.690545 1
vt 4.219521 1
vt -4.406223 0
vt -4.929583 0
vt -4.406223 1
vt -4.929583 1
vt 4.903415 0
vt 4.432392 0
vt 4.903415 1
vt 4.432392 1
vt -4.567947 0
vt -5.091307 0
vt -4.567947 1
vt -5.091307 1
vt 5.065139 0
vt 4.594115 0
vt 5.065139 1
vt 4.594115 1
vt -4.676762 0
vt -5.200122 0
vt -4.676762 1
vt -5.200122 1
vt 5.173953 0
vt 4.70293 0
vt 5.173953 1
vt 4.70293 1
vt -4.731468 0
vt -5.254827 0
vt -4.731468 1
vt -5.254827 1
vt 5.22866 0
vt 4.757637 0
vt 5.22866 1
vt 4.757637 1
vt 0 -2.884933
vt 0 -3.408294
vt -1 -2.884933
vt -1 -3.408294
vt 0 -3.382124
vt 0 -2.911099
vt 1 -3.382124
vt 1 -2.911099
vt 0 -2.461504
vt 0 -2.984862
vt -1 -2.461504
vt -1 -2.984862
vt 0 -2.958691
vt 0 -2.487668
vt 1 -2.958691
vt 1 -2.487668
vt 0 -2.008284
vt 0 -2.531644
vt -1 -2.008284
vt -1 -2.531644
vt 0 -2.505464
vt 0 -2.03444
vt 1 -2.505464
vt 1 -2.03444
vt 0 -1.530149
vt 0 -2.053507
vt -1 -1.530149
vt -1 -2.053507
vt 0 -2.027365
vt 0 -1.556342
vt 1 -2.027365
vt 1 -1.556342
vt 0 -1.032407
vt 0 -1.555767
vt -1 -1.032407
vt -1 -1.555767
vt 0 -1.529609
vt 0 -1.058585
vt 1 -1.529609
vt 1 -1.058585
vt 0 -0.5205042
vt 0 -1.043863
vt -1 -0.5205042
vt -1 -1.043863
vt 0 -1.017674
vt 0 -0.546651
vt 1 -1.017674
vt 1 -0.546651
vt 0 -0.5233586
vt -1 1.583791E-06
vt -1 -0.5233586
vt 0 -0.4971925
vt 0 -0.02616841
vt 1 -0.4971925
vt 1 -0.02616841
vt 9.5 1
vt 10 1
vt 9.5 0
vt 10 0
vt 0.02739048 0.5226423
vt 0.5246515 0.4703781
vt -0.02739048 0.5226423
vt -0.5246515 0.4703781
vt -0.5 0
vt 0.109262 1.039559
vt 0.5983357 0.9356027
vt -0.109262 1.039559
vt -0.5983357 0.9356027
vt 0.2447171 1.545085
vt 0.7202454 1.390576
vt -0.2447171 1.545085
vt -0.7202454 1.390576
vt 0.4322729 2.033683
vt 0.8890457 1.830315
vt -0.4322729 2.033683
vt -0.8890457 1.830315
vt 0.6698732 2.5
vt 1.102886 2.25
vt -0.6698732 2.5
vt -1.102886 2.25
vt 0.954915 2.938926
vt 1.359423 2.645034
vt -0.954915 2.938926
vt -1.359423 2.645034
vt 1.284276 3.345653
vt 1.655848 3.011088
vt -1.284276 3.345653
vt -1.655848 3.011088
vt 1.654347 3.715724
vt 1.988913 3.344152
vt -1.654347 3.715724
vt -1.988913 3.344152
vt 2.061074 4.045085
vt 2.354966 3.640577
vt -2.061074 4.045085
vt -2.354966 3.640577
vt 2.5 4.330127
vt 2.75 3.897115
vt -2.5 4.330127
vt -2.75 3.897115
vt 2.966317 4.567728
vt 3.169685 4.110955
vt -2.966317 4.567728
vt -3.169685 4.110955
vt 3.454915 4.755283
vt 3.609424 4.279755
vt -3.454915 4.755283
vt -3.609424 4.279755
vt 3.960442 4.890738
vt 4.064398 4.401664
vt -3.960442 4.890738
vt -4.064398 4.401664
vt 4.477358 4.97261
vt 4.529622 4.475348
vt -4.477358 4.97261
vt -4.529622 4.475348
vt 5 5
vt 5 4.5
vt -5 5
vt -5 4.5
vt 5.522643 4.97261
vt 5.470378 4.475348
vt -5.522643 4.97261
vt -5.470378 4.475348
vt 6.039558 4.890738
vt 5.935602 4.401664
vt -6.039558 4.890738
vt -5.935602 4.401664
vt 6.545085 4.755283
vt 6.390576 4.279755
vt -6.545085 4.755283
vt -6.390576 4.279755
vt 7.033683 4.567728
vt 6.830315 4.110955
vt -7.033683 4.567728
vt -6.830315 4.110955
vt 7.5 4.330127
vt 7.25 3.897114
vt -7.5 4.330127
vt -7.25 3.897114
vt 7.938926 4.045085
vt 7.645033 3.640577
vt -7.938926 4.045085
vt -7.645033 3.640577
vt 8.345654 3.715724
vt 8.011088 3.344152
vt -8.345654 3.715724
vt -8.011088 3.344152
vt 8.715724 3.345653
vt 8.344151 3.011088
vt -8.715724 3.345653
vt -8.344151 3.011088
vt 9.045086 2.938926
vt 8.640577 2.645033
vt -9.045086 2.938926
vt -8.640577 2.645033
vt 9.330127 2.5
vt 8.897114 2.25
vt -9.330127 2.5
vt -8.897114 2.25
vt 9.567728 2.033683
vt 9.110954 1.830315
vt -9.567728 2.033683
vt -9.110954 1.830315
vt 9.755282 1.545085
vt 9.279755 1.390577
vt -9.755282 1.545085
vt -9.279755 1.390577
vt 9.890738 1.039558
vt 9.401665 0.9356022
vt -9.890738 1.039558
vt -9.401665 0.9356022
vt 9.97261 0.5226425
vt 9.475348 0.4703782
vt -9.97261 0.5226425
vt -9.475348 0.4703782
vt -10 -4.371139E-07
vt -9.5 -3.934025E-07

vn -0.9986296 -6.238923E-09 0.05233588
vn 0.9986296 6.238946E-09 -0.05233608
vn 0 1.192093E-07 -1
vn -0.9876884 -1.864845E-08 0.1564345
vn 0.9876884 1.864841E-08 -0.1564342
vn -0.9659259 -3.085358E-08 0.2588186
vn 0.9659259 3.085357E-08 -0.2588186
vn -0.9335802 -4.272088E-08 0.3583688
vn 0.93358 4.272092E-08 -0.3583691
vn -0.8910065 -5.411991E-08 0.4539907
vn 0.8910068 5.411984E-08 -0.4539902
vn -0.8386707 -6.4926E-08 0.5446388
vn 0.8386707 6.492601E-08 -0.5446389
vn -0.7771459 -7.502085E-08 0.6293206
vn 0.777146 7.502083E-08 -0.6293204
vn -0.707107 -8.429367E-08 0.7071066
vn 0.7071065 8.429372E-08 -0.7071071
vn -0.6293204 -9.264303E-08 0.7771462
vn 0.6293207 9.264298E-08 -0.7771458
vn -0.544639 -9.997733E-08 0.8386707
vn 0.5446388 9.997735E-08 -0.8386709
vn -0.4539907 -1.062162E-07 0.8910066
vn 0.4539905 1.062163E-07 -0.8910066
vn -0.3583681 -1.112915E-07 0.9335805
vn 0.3583683 1.112914E-07 -0.9335805
vn -0.2588185 -1.151474E-07 0.9659261
vn 0.2588184 1.151474E-07 -0.9659262
vn -0.1564345 -1.177416E-07 0.9876885
vn 0.1564343 1.177416E-07 -0.9876885
vn -0.0523359 -1.190459E-07 0.9986297
vn 0.05233609 1.190459E-07 -0.9986297
vn 0.05233585 -1.190459E-07 0.9986297
vn -0.05233604 1.190459E-07 -0.9986297
vn 0.1564346 -1.177416E-07 0.9876884
vn -0.1564345 1.177416E-07 -0.9876885
vn 0.2588185 -1.151474E-07 0.9659261
vn -0.2588184 1.151474E-07 -0.9659262
vn 0.3583682 -1.112914E-07 0.9335805
vn -0.3583683 1.112914E-07 -0.9335805
vn 0.453991 -1.062162E-07 0.8910064
vn -0.4539907 1.062162E-07 -0.8910065
vn 0.5446392 -9.997731E-08 0.8386706
vn -0.5446391 9.997732E-08 -0.8386707
vn 0.6293195 -9.26431E-08 0.7771468
vn -0.6293195 9.26431E-08 -0.7771468
vn 0.7071072 -8.429364E-08 0.7071064
vn -0.7071075 8.42936E-08 -0.7071061
vn 0.7771452 -7.502096E-08 0.6293215
vn -0.7771453 7.502095E-08 -0.6293214
vn 0.8386713 -6.49259E-08 0.544638
vn -0.8386716 6.492585E-08 -0.5446376
vn 0.891006 -5.412001E-08 0.4539916
vn -0.8910065 5.411988E-08 -0.4539905
vn 0.9335809 -4.272065E-08 0.3583668
vn -0.9335799 4.272096E-08 -0.3583694
vn 0.9659261 -3.085354E-08 0.2588183
vn -0.9659258 3.085366E-08 -0.2588193
vn 0.9876882 -1.864858E-08 0.1564356
vn -0.9876885 1.864832E-08 -0.1564334
vn 0.9986296 -6.238916E-09 0.05233582
vn -0.9986296 6.23894E-09 -0.05233603
vn 0 -1 -1.192093E-07
vn 0 1 1.192093E-07

usemtl ProBuilderDefault
f 3/3/1 4/4/1 2/2/1 1/1/1
f 7/7/2 8/8/2 6/6/2 5/5/2
f 1/1/3 6/11/3 8/10/3 3/9/3
f 4/14/4 10/15/4 9/13/4 2/12/4
f 12/18/5 7/19/5 5/17/5 11/16/5
f 10/22/6 14/23/6 13/21/6 9/20/6
f 16/26/7 12/27/7 11/25/7 15/24/7
f 14/30/8 18/31/8 17/29/8 13/28/8
f 20/34/9 16/35/9 15/33/9 19/32/9
f 18/38/10 22/39/10 21/37/10 17/36/10
f 24/42/11 20/43/11 19/41/11 23/40/11
f 22/46/12 26/47/12 25/45/12 21/44/12
f 28/50/13 24/51/13 23/49/13 27/48/13
f 26/54/14 30/55/14 29/53/14 25/52/14
f 32/58/15 28/59/15 27/57/15 31/56/15
f 30/62/16 34/63/16 33/61/16 29/60/16
f 36/66/17 32/67/17 31/65/17 35/64/17
f 34/70/18 38/71/18 37/69/18 33/68/18
f 40/74/19 36/75/19 35/73/19 39/72/19
f 38/78/20 42/79/20 41/77/20 37/76/20
f 44/82/21 40/83/21 39/81/21 43/80/21
f 42/86/22 46/87/22 45/85/22 41/84/22
f 48/90/23 44/91/23 43/89/23 47/88/23
f 46/94/24 50/95/24 49/93/24 45/92/24
f 52/98/25 48/99/25 47/97/25 51/96/25
f 50/102/26 54/103/26 53/101/26 49/100/26
f 56/106/27 52/107/27 51/105/27 55/104/27
f 54/110/28 58/111/28 57/109/28 53/108/28
f 60/114/29 56/115/29 55/113/29 59/112/29
f 58/118/30 62/119/30 61/117/30 57/116/30
f 64/122/31 60/123/31 59/121/31 63/120/31
f 62/118/32 66/119/32 65/117/32 61/116/32
f 68/122/33 64/123/33 63/121/33 67/120/33
f 66/110/34 70/111/34 69/109/34 65/108/34
f 72/114/35 68/115/35 67/113/35 71/112/35
f 70/102/36 74/103/36 73/101/36 69/100/36
f 76/106/37 72/107/37 71/105/37 75/104/37
f 74/94/38 78/95/38 77/93/38 73/92/38
f 80/98/39 76/99/39 75/97/39 79/96/39
f 78/86/40 82/87/40 81/85/40 77/84/40
f 84/90/41 80/91/41 79/89/41 83/88/41
f 82/78/42 86/79/42 85/77/42 81/76/42
f 88/82/43 84/83/43 83/81/43 87/80/43
f 86/70/44 90/71/44 89/69/44 85/68/44
f 92/74/45 88/75/45 87/73/45 91/72/45
f 90/62/46 94/63/46 93/61/46 89/60/46
f 96/66/47 92/67/47 91/65/47 95/64/47
f 94/126/48 98/127/48 97/125/48 93/124/48
f 100/130/49 96/131/49 95/129/49 99/128/49
f 98/134/50 102/135/50 101/133/50 97/132/50
f 104/138/51 100/139/51 99/137/51 103/136/51
f 102/142/52 106/143/52 105/141/52 101/140/52
f 108/146/53 104/147/53 103/145/53 107/144/53
f 106/150/54 110/151/54 109/149/54 105/148/54
f 112/154/55 108/155/55 107/153/55 111/152/55
f 110/158/56 114/159/56 113/157/56 109/156/56
f 116/162/57 112/163/57 111/161/57 115/160/57
f 114/166/58 118/167/58 117/165/58 113/164/58
f 120/170/59 116/171/59 115/169/59 119/168/59
f 118/173/60 122/174/60 121/172/60 117/1/60
f 124/177/61 120/178/61 119/176/61 123/175/61
f 123/181/3 121/182/3 122/180/3 124/179/3
f 8/11/62 7/184/62 4/183/62 3/1/62
f 5/186/63 6/187/63 1/1/63 2/185/63
f 7/184/62 12/189/62 10/188/62 4/183/62
f 11/191/63 5/186/63 2/185/63 9/190/63
f 12/189/62 16/193/62 14/192/62 10/188/62
f 15/195/63 11/191/63 9/190/63 13/194/63
f 16/193/62 20/197/62 18/196/62 14/192/62
f 19/199/63 15/195/63 13/194/63 17/198/63
f 20/197/62 24/201/62 22/200/62 18/196/62
f 23/203/63 19/199/63 17/198/63 21/202/63
f 24/201/62 28/205/62 26/204/62 22/200/62
f 27/207/63 23/203/63 21/202/63 25/206/63
f 28/205/62 32/209/62 30/208/62 26/204/62
f 31/211/63 27/207/63 25/206/63 29/210/63
f 32/209/62 36/213/62 34/212/62 30/208/62
f 35/215/63 31/211/63 29/210/63 33/214/63
f 36/213/62 40/217/62 38/216/62 34/212/62
f 39/219/63 35/215/63 33/214/63 37/218/63
f 40/217/62 44/221/62 42/220/62 38/216/62
f 43/223/63 39/219/63 37/218/63 41/222/63
f 44/221/62 48/225/62 46/224/62 42/220/62
f 47/227/63 43/223/63 41/222/63 45/226/63
f 48/225/62 52/229/62 50/228/62 46/224/62
f 51/231/63 47/227/63 45/226/63 49/230/63
f 52/229/62 56/233/62 54/232/62 50/228/62
f 55/235/63 51/231/63 49/230/63 53/234/63
f 56/233/62 60/237/62 58/236/62 54/232/62
f 59/239/63 55/235/63 53/234/63 57/238/63
f 60/237/62 64/241/62 62/240/62 58/236/62
f 63/243/63 59/239/63 57/238/63 61/242/63
f 64/241/62 68/245/62 66/244/62 62/240/62
f 67/247/63 63/243/63 61/242/63 65/246/63
f 68/245/62 72/249/62 70/248/62 66/244/62
f 71/251/63 67/247/63 65/246/63 69/250/63
f 72/249/62 76/253/62 74/252/62 70/248/62
f 75/255/63 71/251/63 69/250/63 73/254/63
f 76/253/62 80/257/62 78/256/62 74/252/62
f 79/259/63 75/255/63 73/254/63 77/258/63
f 80/257/62 84/261/62 82/260/62 78/256/62
f 83/263/63 79/259/63 77/258/63 81/262/63
f 84/261/62 88/265/62 86/264/62 82/260/62
f 87/267/63 83/263/63 81/262/63 85/266/63
f 88/265/62 92/269/62 90/268/62 86/264/62
f 91/271/63 87/267/63 85/266/63 89/270/63
f 92/269/62 96/273/62 94/272/62 90/268/62
f 95/275/63 91/271/63 89/270/63 93/274/63
f 96/273/62 100/277/62 98/276/62 94/272/62
f 99/279/63 95/275/63 93/274/63 97/278/63
f 100/277/62 104/281/62 102/280/62 98/276/62
f 103/283/63 99/279/63 97/278/63 101/282/63
f 104/281/62 108/285/62 106/284/62 102/280/62
f 107/287/63 103/283/63 101/282/63 105/286/63
f 108/285/62 112/289/62 110/288/62 106/284/62
f 111/291/63 107/287/63 105/286/63 109/290/63
f 112/289/62 116/293/62 114/292/62 110/288/62
f 115/295/63 111/291/63 109/290/63 113/294/63
f 116/293/62 120/297/62 118/296/62 114/292/62
f 119/299/63 115/295/63 113/294/63 117/298/63
f 120/297/62 124/181/62 122/182/62 118/296/62
f 123/301/63 119/299/63 117/298/63 121/300/63

