# ProBuilder 4.4.0
# https://unity3d.com/unity/features/worldbuilding/probuilder
# 24.10.2021 19:41:25

mtllib ./Obstacle30D.mtl
o Obstacle30D

g 30deg
v -5 1.5 0
v -4.996954 1.5 0.1744975
v -5 0.4999999 -1.192093E-07
v -4.996954 0.4999999 0.1744974
v -4.497259 1.5 0.1570477
v -4.5 1.5 0
v -4.497259 0.4999999 0.1570476
v -4.5 0.4999999 -1.192093E-07
v -4.987821 1.5 0.3487824
v -4.987821 0.4999999 0.3487823
v -4.489038 1.5 0.3139041
v -4.489038 0.4999999 0.313904
v -4.97261 1.5 0.5226424
v -4.97261 0.4999998 0.5226423
v -4.475348 1.5 0.4703782
v -4.475348 0.4999998 0.470378
v -4.95134 1.5 0.6958656
v -4.95134 0.4999998 0.6958655
v -4.456206 1.5 0.6262791
v -4.456206 0.4999998 0.6262789
v -4.924039 1.5 0.868241
v -4.924039 0.4999998 0.8682409
v -4.431635 1.5 0.7814169
v -4.431635 0.4999998 0.7814168
v -4.890738 1.5 1.039559
v -4.890738 0.4999998 1.039559
v -4.401664 1.5 0.9356028
v -4.401664 0.4999998 0.9356027
v -4.851479 1.5 1.20961
v -4.851479 0.4999997 1.20961
v -4.366331 1.5 1.088649
v -4.366331 0.4999998 1.088649
v -4.806308 1.5 1.378187
v -4.806308 0.4999997 1.378187
v -4.325677 1.5 1.240368
v -4.325677 0.4999997 1.240368
v -4.755283 1.5 1.545085
v -4.755283 0.4999997 1.545085
v -4.279755 1.5 1.390577
v -4.279755 0.4999997 1.390576
v -4.698463 1.5 1.710101
v -4.698463 0.4999997 1.710101
v -4.228617 1.5 1.539091
v -4.228617 0.4999997 1.539091
v -4.63592 1.5 1.873033
v -4.63592 0.4999997 1.873033
v -4.172328 1.5 1.68573
v -4.172328 0.4999997 1.68573
v -4.567727 1.5 2.033684
v -4.567727 0.4999996 2.033684
v -4.110954 1.5 1.830315
v -4.110954 0.4999997 1.830315
v -4.49397 1.5 2.191856
v -4.49397 0.4999996 2.191856
v -4.044573 1.5 1.97267
v -4.044573 0.4999996 1.97267
v -4.414738 1.5 2.347358
v -4.414738 0.4999996 2.347358
v -3.973264 1.5 2.112622
v -3.973264 0.4999996 2.112622
v -4.330127 1.5 2.5
v -4.330127 0.4999996 2.5
v -3.897114 1.5 2.25
v -3.897114 0.4999996 2.25

vt 0 0
vt 0 0.1745241
vt 1 0
vt 1 0.1745241
vt 0 0.1657981
vt 0 0.008726389
vt -1 0.1657981
vt -1 0.008726389
vt 0 1
vt 0.5 1
vt 0.5 0
vt 0 0.1744178
vt 0 0.3489418
vt 1 0.1744178
vt 1 0.3489418
vt 0 0.3402146
vt 0 0.183143
vt -1 0.3402146
vt -1 0.183143
vt 0 0.5230407
vt 1 0.5230407
vt 0 0.5143155
vt 0 0.3572437
vt -1 0.5143155
vt -1 0.3572437
vt 0 0.5220847
vt 0 0.6966087
vt 1 0.5220847
vt 1 0.6966087
vt 0 0.6878824
vt 0 0.5308107
vt -1 0.6878824
vt -1 0.5308107
vt 0 0.6949104
vt 0 0.8694345
vt 1 0.6949104
vt 1 0.8694345
vt 0 0.8607082
vt 0 0.7036366
vt -1 0.8607082
vt -1 0.7036366
vt 0 0.8667829
vt 0 1.041307
vt 1 0.8667829
vt 1 1.041307
vt 0 1.032581
vt 0 0.875509
vt -1 1.032581
vt -1 0.875509
vt 0 1.037493
vt 0 1.212017
vt 1 1.037493
vt 1 1.212017
vt 0 1.203292
vt 0 1.04622
vt -1 1.203292
vt -1 1.04622
vt 0 1.206833
vt 0 1.381357
vt 1 1.206833
vt 1 1.381357
vt 0 1.372631
vt 0 1.21556
vt -1 1.372631
vt -1 1.21556
vt 0 1.374597
vt 0 1.549121
vt 1 1.374597
vt 1 1.549121
vt 0 1.540393
vt 0 1.383322
vt -1 1.540393
vt -1 1.383322
vt 0 1.540578
vt 0 1.715102
vt 1 1.540578
vt 1 1.715102
vt 0 1.706377
vt -1 1.706377
vt -1 1.549305
vt 0 1.704579
vt 0 1.879102
vt 1 1.704579
vt 1 1.879102
vt 0 1.870375
vt 0 1.713304
vt -1 1.870375
vt -1 1.713304
vt 0 1.866392
vt 0 2.040917
vt 1 1.866392
vt 1 2.040917
vt 0 2.032192
vt 0 1.87512
vt -1 2.032192
vt -1 1.87512
vt 0 2.02583
vt 0 2.200354
vt 1 2.02583
vt 1 2.200354
vt 0 2.191627
vt 0 2.034555
vt -1 2.191627
vt -1 2.034555
vt 0 2.182689
vt 0 2.357213
vt 1 2.182689
vt 1 2.357213
vt 0 2.348488
vt 0 2.191417
vt -1 2.348488
vt -1 2.191417
vt 0 2.336786
vt 0 2.51131
vt 1 2.336786
vt 1 2.51131
vt 0 2.502584
vt 0 2.345512
vt -1 2.502584
vt -1 2.345512
vt 0.1698735 1
vt 0.6698733 1
vt 0.1698735 0
vt 0.6698733 0
vt 0.003046036 0.1744975
vt 0.5027413 0.1570477
vt -0.003046036 0.1744975
vt -0.5027413 0.1570477
vt -0.5 0
vt 0.01217937 0.3487824
vt 0.5109615 0.3139041
vt -0.01217937 0.3487824
vt -0.5109615 0.3139041
vt 0.02739048 0.5226423
vt 0.5246515 0.4703781
vt -0.02739048 0.5226423
vt -0.5246515 0.4703781
vt 0.0486598 0.6958655
vt 0.5437937 0.626279
vt -0.0486598 0.6958655
vt -0.5437937 0.626279
vt 0.07596111 0.8682409
vt 0.5683651 0.7814168
vt -0.07596111 0.8682409
vt -0.5683651 0.7814168
vt 0.109262 1.039559
vt 0.5983357 0.9356027
vt -0.109262 1.039559
vt -0.5983357 0.9356027
vt 0.1485214 1.20961
vt 0.6336694 1.088649
vt -0.1485214 1.20961
vt -0.6336694 1.088649
vt 0.1936917 1.378187
vt 0.6743226 1.240368
vt -0.1936917 1.378187
vt -0.6743226 1.240368
vt 0.2447171 1.545085
vt 0.7202454 1.390576
vt -0.2447171 1.545085
vt -0.7202454 1.390576
vt 0.301537 1.710101
vt 0.7713833 1.539091
vt -0.301537 1.710101
vt -0.7713833 1.539091
vt 0.3640804 1.873033
vt 0.8276725 1.68573
vt -0.3640804 1.873033
vt -0.8276725 1.68573
vt 0.4322729 2.033683
vt 0.8890457 1.830315
vt -0.4322729 2.033683
vt -0.8890457 1.830315
vt 0.5060296 2.191856
vt 0.9554267 1.97267
vt -0.5060296 2.191856
vt -0.9554267 1.97267
vt 0.5852623 2.347358
vt 1.026736 2.112622
vt -0.5852623 2.347358
vt -1.026736 2.112622
vt 0.6698732 2.5
vt 1.102886 2.25
vt -0.6698732 2.5
vt -1.102886 2.25

vn -0.9998477 -2.080606E-09 0.01745339
vn 0.9998477 2.080533E-09 -0.01745278
vn 0 1.192093E-07 -1
vn -0.9986297 -6.238561E-09 0.05233285
vn 0.9986296 6.238706E-09 -0.05233407
vn -0.9961945 -1.039E-08 0.08715763
vn 0.9961945 1.039E-08 -0.08715761
vn -0.992546 -1.452808E-08 0.1218704
vn 0.9925462 1.45279E-08 -0.1218689
vn -0.9876886 -1.864827E-08 0.156433
vn 0.9876884 1.864845E-08 -0.1564345
vn -0.981627 -2.274627E-08 0.1908096
vn 0.9816273 2.274617E-08 -0.1908087
vn -0.97437 -2.68163E-08 0.2249515
vn 0.9743698 2.68164E-08 -0.2249523
vn -0.9659256 -3.085373E-08 0.2588199
vn 0.9659257 3.08537E-08 -0.2588196
vn -0.9563056 -3.485312E-08 0.2923692
vn 0.9563057 3.485304E-08 -0.2923686
vn -0.9455178 -3.881103E-08 0.3255705
vn 0.9455177 3.881105E-08 -0.3255707
vn -0.9335813 -4.272052E-08 0.3583657
vn 0.9335811 4.27206E-08 -0.3583664
vn -0.920504 -4.657904E-08 0.3907334
vn 0.9205039 4.657906E-08 -0.3907335
vn -0.9063085 -5.037986E-08 0.422617
vn 0.9063088 5.037978E-08 -0.4226162
vn -0.8910055 -5.412011E-08 0.4539925
vn 0.8910058 5.412008E-08 -0.4539922
vn -0.8746198 -5.779379E-08 0.4848095
vn 0.8746201 5.779372E-08 -0.484809
vn 0.5000002 -1.032383E-07 0.8660254
vn 0 -1 -1.192093E-07
vn 0 1 1.192093E-07

usemtl ProBuilderDefault
f 3/3/1 4/4/1 2/2/1 1/1/1
f 7/7/2 8/8/2 6/6/2 5/5/2
f 1/1/3 6/11/3 8/10/3 3/9/3
f 4/14/4 10/15/4 9/13/4 2/12/4
f 12/18/5 7/19/5 5/17/5 11/16/5
f 10/15/6 14/21/6 13/20/6 9/13/6
f 16/24/7 12/25/7 11/23/7 15/22/7
f 14/28/8 18/29/8 17/27/8 13/26/8
f 20/32/9 16/33/9 15/31/9 19/30/9
f 18/36/10 22/37/10 21/35/10 17/34/10
f 24/40/11 20/41/11 19/39/11 23/38/11
f 22/44/12 26/45/12 25/43/12 21/42/12
f 28/48/13 24/49/13 23/47/13 27/46/13
f 26/52/14 30/53/14 29/51/14 25/50/14
f 32/56/15 28/57/15 27/55/15 31/54/15
f 30/60/16 34/61/16 33/59/16 29/58/16
f 36/64/17 32/65/17 31/63/17 35/62/17
f 34/68/18 38/69/18 37/67/18 33/66/18
f 40/72/19 36/73/19 35/71/19 39/70/19
f 38/76/20 42/77/20 41/75/20 37/74/20
f 44/79/21 40/80/21 39/67/21 43/78/21
f 42/83/22 46/84/22 45/82/22 41/81/22
f 48/87/23 44/88/23 43/86/23 47/85/23
f 46/91/24 50/92/24 49/90/24 45/89/24
f 52/95/25 48/96/25 47/94/25 51/93/25
f 50/99/26 54/100/26 53/98/26 49/97/26
f 56/103/27 52/104/27 51/102/27 55/101/27
f 54/107/28 58/108/28 57/106/28 53/105/28
f 60/111/29 56/112/29 55/110/29 59/109/29
f 58/115/30 62/116/30 61/114/30 57/113/30
f 64/119/31 60/120/31 59/118/31 63/117/31
f 63/123/32 61/124/32 62/122/32 64/121/32
f 8/11/33 7/126/33 4/125/33 3/1/33
f 5/128/34 6/129/34 1/1/34 2/127/34
f 7/126/33 12/131/33 10/130/33 4/125/33
f 11/133/34 5/128/34 2/127/34 9/132/34
f 12/131/33 16/135/33 14/134/33 10/130/33
f 15/137/34 11/133/34 9/132/34 13/136/34
f 16/135/33 20/139/33 18/138/33 14/134/33
f 19/141/34 15/137/34 13/136/34 17/140/34
f 20/139/33 24/143/33 22/142/33 18/138/33
f 23/145/34 19/141/34 17/140/34 21/144/34
f 24/143/33 28/147/33 26/146/33 22/142/33
f 27/149/34 23/145/34 21/144/34 25/148/34
f 28/147/33 32/151/33 30/150/33 26/146/33
f 31/153/34 27/149/34 25/148/34 29/152/34
f 32/151/33 36/155/33 34/154/33 30/150/33
f 35/157/34 31/153/34 29/152/34 33/156/34
f 36/155/33 40/159/33 38/158/33 34/154/33
f 39/161/34 35/157/34 33/156/34 37/160/34
f 40/159/33 44/163/33 42/162/33 38/158/33
f 43/165/34 39/161/34 37/160/34 41/164/34
f 44/163/33 48/167/33 46/166/33 42/162/33
f 47/169/34 43/165/34 41/164/34 45/168/34
f 48/167/33 52/171/33 50/170/33 46/166/33
f 51/173/34 47/169/34 45/168/34 49/172/34
f 52/171/33 56/175/33 54/174/33 50/170/33
f 55/177/34 51/173/34 49/172/34 53/176/34
f 56/175/33 60/179/33 58/178/33 54/174/33
f 59/181/34 55/177/34 53/176/34 57/180/34
f 60/179/33 64/183/33 62/182/33 58/178/33
f 63/185/34 59/181/34 57/180/34 61/184/34

