# ProBuilder 4.5.2
# https://unity3d.com/unity/features/worldbuilding/probuilder
# 02.08.2021 15:30:36

mtllib ./Ring.mtl
o Ring

g Arch
v -3 0.2500001 2.980233E-08
v -2.934443 0.25 0.6237352
v -3 -0.25 -2.980232E-08
v -2.934443 -0.25 0.6237351
v -2.640999 0.25 0.5613617
v -2.7 0.2500001 2.980233E-08
v -2.640999 -0.25 0.5613617
v -2.7 -0.25 -2.980232E-08
v -2.740636 0.2499999 1.22021
v -2.740636 -0.2500001 1.22021
v -2.466573 0.25 1.098189
v -2.466573 -0.2500001 1.098189
v -2.427051 0.2499999 1.763356
v -2.427051 -0.2500002 1.763356
v -2.184346 0.2499999 1.58702
v -2.184346 -0.2500001 1.58702
v -2.007392 0.2499998 2.229435
v -2.007392 -0.2500002 2.229435
v -1.806653 0.2499999 2.006491
v -1.806653 -0.2500002 2.006491
v -1.5 0.2499998 2.598077
v -1.5 -0.2500003 2.598077
v -1.35 0.2499998 2.338269
v -1.35 -0.2500002 2.338269
v -0.9270511 0.2499997 2.85317
v -0.9270511 -0.2500003 2.85317
v -0.8343458 0.2499998 2.567853
v -0.8343458 -0.2500003 2.567853
v -0.3135853 0.2499997 2.983566
v -0.3135853 -0.2500003 2.983566
v -0.2822268 0.2499998 2.68521
v -0.2822268 -0.2500003 2.68521
v 0.3135855 0.2499997 2.983566
v 0.3135855 -0.2500003 2.983566
v 0.282227 0.2499998 2.68521
v 0.282227 -0.2500003 2.68521
v 0.9270508 0.2499997 2.85317
v 0.9270508 -0.2500003 2.85317
v 0.8343458 0.2499998 2.567853
v 0.8343458 -0.2500003 2.567853
v 1.5 0.2499998 2.598076
v 1.5 -0.2500003 2.598076
v 1.35 0.2499998 2.338269
v 1.35 -0.2500002 2.338269
v 2.007392 0.2499998 2.229435
v 2.007392 -0.2500002 2.229435
v 1.806653 0.2499999 2.006491
v 1.806653 -0.2500002 2.006491
v 2.427051 0.2499999 1.763356
v 2.427051 -0.2500002 1.763356
v 2.184346 0.2499999 1.58702
v 2.184346 -0.2500001 1.58702
v 2.740636 0.2499999 1.22021
v 2.740636 -0.2500001 1.22021
v 2.466573 0.25 1.098189
v 2.466573 -0.2500001 1.098189
v 2.934443 0.25 0.623735
v 2.934443 -0.25 0.6237349
v 2.640999 0.25 0.5613615
v 2.640999 -0.25 0.5613614
v 3 0.2500001 -2.32466E-07
v 3 -0.25 -2.920707E-07
v 2.7 0.2500001 -2.062392E-07
v 2.7 -0.25 -2.658439E-07
v 2.934443 0.2500001 -0.6237354
v 2.934443 -0.2499999 -0.6237355
v 2.640998 0.2500001 -0.5613619
v 2.640998 -0.2499999 -0.561362
v 2.740636 0.2500002 -1.22021
v 2.740636 -0.2499998 -1.22021
v 2.466573 0.2500002 -1.098189
v 2.466573 -0.2499998 -1.098189
v 2.427051 0.2500003 -1.763356
v 2.427051 -0.2499998 -1.763356
v 2.184346 0.2500003 -1.58702
v 2.184346 -0.2499998 -1.58702
v 2.007392 0.2500004 -2.229434
v 2.007392 -0.2499997 -2.229434
v 1.806653 0.2500003 -2.006491
v 1.806653 -0.2499997 -2.006491
v 1.5 0.2500004 -2.598077
v 1.5 -0.2499997 -2.598077
v 1.35 0.2500004 -2.338269
v 1.35 -0.2499997 -2.338269
v 0.9270513 0.2500004 -2.85317
v 0.9270513 -0.2499996 -2.85317
v 0.8343463 0.2500004 -2.567853
v 0.8343463 -0.2499997 -2.567853
v 0.313585 0.2500004 -2.983566
v 0.313585 -0.2499996 -2.983566
v 0.2822266 0.2500004 -2.68521
v 0.2822266 -0.2499997 -2.68521
v -0.313585 0.2500004 -2.983566
v -0.313585 -0.2499996 -2.983566
v -0.2822266 0.2500004 -2.68521
v -0.2822266 -0.2499997 -2.68521
v -0.9270513 0.2500004 -2.85317
v -0.9270513 -0.2499996 -2.85317
v -0.8343463 0.2500004 -2.567853
v -0.8343463 -0.2499997 -2.567853
v -1.5 0.2500004 -2.598077
v -1.5 -0.2499997 -2.598077
v -1.35 0.2500004 -2.338269
v -1.35 -0.2499997 -2.338269
v -2.007392 0.2500004 -2.229434
v -2.007392 -0.2499997 -2.229434
v -1.806653 0.2500003 -2.006491
v -1.806653 -0.2499997 -2.006491
v -2.427051 0.2500003 -1.763356
v -2.427051 -0.2499998 -1.763356
v -2.184346 0.2500003 -1.587021
v -2.184346 -0.2499998 -1.587021
v -2.740637 0.2500002 -1.22021
v -2.740637 -0.2499998 -1.22021
v -2.466573 0.2500002 -1.098189
v -2.466573 -0.2499998 -1.098189
v -2.934443 0.2500001 -0.6237354
v -2.934443 -0.2499999 -0.6237354
v -2.640998 0.2500001 -0.5613618
v -2.640998 -0.2499999 -0.5613619

vt -0.2500001 -0.3135845
vt -0.2500001 0.3135863
vt 0.2499999 -0.3135845
vt 0.2499999 0.3135863
vt 0.2500001 0.282227
vt 0.2500001 -0.2822267
vt -0.2499999 0.282227
vt -0.2499999 -0.2822267
vt 0.3135848 -0.2500001
vt -0.313586 -0.2500001
vt 0.3135848 0.2499999
vt -0.313586 0.2499999
vt 0.282227 -0.2500001
vt -0.2822267 -0.2500001
vt 0.282227 0.2499999
vt -0.2822267 0.2499999
vt 0.2500001 0.3135864
vt 0.2500001 -0.3135846
vt -0.2499999 0.3135864
vt -0.2499999 -0.3135846
vt -0.2500001 -0.2822267
vt -0.2500001 0.282227
vt 0.2499999 -0.2822267
vt 0.2499999 0.282227
vt -3 0
vt -2.934443 0.6237351
vt -2.7 0
vt -2.640999 0.5613616
vt 2.934443 0.6237351
vt 3 0
vt 2.640999 0.5613616
vt 2.7 0
vt -2.740636 1.22021
vt -2.466573 1.098189
vt 2.740636 1.22021
vt 2.466573 1.098189
vt -2.427051 1.763356
vt -2.184346 1.58702
vt 2.427051 1.763356
vt 2.184346 1.58702
vt -2.007392 2.229434
vt -1.806653 2.006491
vt 2.007392 2.229434
vt 1.806653 2.006491
vt -1.5 2.598076
vt -1.35 2.338269
vt 1.5 2.598076
vt 1.35 2.338269
vt -0.9270511 2.85317
vt -0.8343458 2.567853
vt 0.9270511 2.85317
vt 0.8343458 2.567853
vt -0.3135853 2.983566
vt -0.2822268 2.685209
vt 0.3135853 2.983566
vt 0.2822268 2.685209
vt 1.5 2.598076
vt 1.35 2.338269
vt -1.5 2.598076
vt -1.35 2.338269
vt 2.7 -2.360415E-07
vt -2.7 -2.360415E-07
vt 2.934443 -0.6237354
vt 2.640998 -0.5613618
vt -2.934443 -0.6237354
vt -2.640998 -0.5613618
vt 2.740636 -1.22021
vt 2.466573 -1.098189
vt -2.740636 -1.22021
vt -2.466573 -1.098189
vt 2.427051 -1.763355
vt 2.184346 -1.58702
vt -2.427051 -1.763355
vt -2.184346 -1.58702
vt 2.007392 -2.229434
vt 1.806653 -2.006491
vt -2.007392 -2.229434
vt -1.806653 -2.006491
vt 1.5 -2.598076
vt 1.35 -2.338269
vt -1.5 -2.598076
vt -1.35 -2.338269
vt 0.9270513 -2.853169
vt 0.8343463 -2.567852
vt -0.9270513 -2.853169
vt -0.8343463 -2.567852
vt 0.313585 -2.983566
vt 0.2822266 -2.685209
vt -0.313585 -2.983566
vt -0.2822266 -2.685209
vt -1.5 -2.598076
vt 1.5 -2.598076

vn -0.994522 -1.246073E-08 0.1045282
vn 0.9945219 1.246076E-08 -0.1045284
vn -0.9510564 -3.683773E-08 0.3090173
vn 0.9510565 3.683771E-08 -0.3090171
vn -0.8660254 -5.960463E-08 0.5
vn 0.8660254 5.960464E-08 -0.5000001
vn -0.7431447 -7.976661E-08 0.6691309
vn 0.7431448 7.976659E-08 -0.6691307
vn -0.5877854 -9.644233E-08 0.809017
vn 0.5877852 9.644234E-08 -0.8090171
vn -0.4067368 -1.089031E-07 0.9135455
vn 0.4067366 1.089031E-07 -0.9135456
vn -0.2079116 -1.166043E-07 0.9781477
vn 0.2079117 1.166043E-07 -0.9781477
vn 0 -1.192093E-07 1
vn 0 1.192093E-07 -1
vn 0.2079118 -1.166043E-07 0.9781477
vn -0.2079118 1.166043E-07 -0.9781477
vn 0.4067369 -1.089031E-07 0.9135455
vn -0.4067367 1.089031E-07 -0.9135455
vn 0.5877851 -9.644236E-08 0.8090172
vn -0.5877852 9.644234E-08 -0.8090171
vn 0.743145 -7.976655E-08 0.6691304
vn -0.743145 7.976657E-08 -0.6691306
vn 0.8660254 -5.960463E-08 0.5
vn -0.8660256 5.96046E-08 -0.4999996
vn 0.9510564 -3.683773E-08 0.3090173
vn -0.9510564 3.683775E-08 -0.3090175
vn 0.994522 -1.246073E-08 0.1045282
vn -0.994522 1.246066E-08 -0.1045276
vn 0.8660254 5.960463E-08 -0.5
vn -0.8660254 5.960464E-08 -0.5000001
vn 0.8660254 -5.960466E-08 0.5000002
vn 0 -1 -1.192093E-07
vn 0 1 1.192093E-07

usemtl ProBuilderDefault
f 3/3/1 2/2/1 1/1/1
f 3/3/1 4/4/1 2/2/1
f 7/7/2 6/6/2 5/5/2
f 7/7/2 8/8/2 6/6/2
f 4/3/3 9/2/3 2/1/3
f 4/3/3 10/4/3 9/2/3
f 12/7/4 5/6/4 11/5/4
f 12/7/4 7/8/4 5/6/4
f 10/3/5 13/2/5 9/1/5
f 10/3/5 14/4/5 13/2/5
f 16/7/6 11/6/6 15/5/6
f 16/7/6 12/8/6 11/6/6
f 14/3/7 17/2/7 13/1/7
f 14/3/7 18/4/7 17/2/7
f 20/7/8 15/6/8 19/5/8
f 20/7/8 16/8/8 15/6/8
f 18/11/9 21/10/9 17/9/9
f 18/11/9 22/12/9 21/10/9
f 24/15/10 19/14/10 23/13/10
f 24/15/10 20/16/10 19/14/10
f 22/11/11 25/10/11 21/9/11
f 22/11/11 26/12/11 25/10/11
f 28/15/12 23/14/12 27/13/12
f 28/15/12 24/16/12 23/14/12
f 26/11/13 29/10/13 25/9/13
f 26/11/13 30/12/13 29/10/13
f 32/15/14 27/14/14 31/13/14
f 32/15/14 28/16/14 27/14/14
f 30/11/15 33/10/15 29/9/15
f 30/11/15 34/12/15 33/10/15
f 36/15/16 31/14/16 35/13/16
f 36/15/16 32/16/16 31/14/16
f 34/11/17 37/10/17 33/9/17
f 34/11/17 38/12/17 37/10/17
f 40/15/18 35/14/18 39/13/18
f 40/15/18 36/16/18 35/14/18
f 38/11/19 41/10/19 37/9/19
f 38/11/19 42/12/19 41/10/19
f 44/15/20 39/14/20 43/13/20
f 44/15/20 40/16/20 39/14/20
f 42/11/21 45/10/21 41/9/21
f 42/11/21 46/12/21 45/10/21
f 48/15/22 43/14/22 47/13/22
f 48/15/22 44/16/22 43/14/22
f 46/19/23 49/18/23 45/17/23
f 46/19/23 50/20/23 49/18/23
f 52/23/24 47/22/24 51/21/24
f 52/23/24 48/24/24 47/22/24
f 50/19/25 53/18/25 49/17/25
f 50/19/25 54/20/25 53/18/25
f 56/23/26 51/22/26 55/21/26
f 56/23/26 52/24/26 51/22/26
f 54/19/27 57/18/27 53/17/27
f 54/19/27 58/20/27 57/18/27
f 60/23/28 55/22/28 59/21/28
f 60/23/28 56/24/28 55/22/28
f 58/19/29 61/18/29 57/17/29
f 58/19/29 62/20/29 61/18/29
f 64/23/30 59/22/30 63/21/30
f 64/23/30 60/24/30 59/22/30
f 62/19/2 65/18/2 61/17/2
f 62/19/2 66/20/2 65/18/2
f 68/23/1 63/22/1 67/21/1
f 68/23/1 64/24/1 63/22/1
f 66/19/4 69/18/4 65/17/4
f 66/19/4 70/20/4 69/18/4
f 72/23/3 67/22/3 71/21/3
f 72/23/3 68/24/3 67/22/3
f 70/19/31 73/18/31 69/17/31
f 70/19/31 74/20/31 73/18/31
f 76/23/5 71/22/5 75/21/5
f 76/23/5 72/24/5 71/22/5
f 74/19/8 77/18/8 73/17/8
f 74/19/8 78/20/8 77/18/8
f 80/23/7 75/22/7 79/21/7
f 80/23/7 76/24/7 75/22/7
f 78/11/10 81/10/10 77/9/10
f 78/11/10 82/12/10 81/10/10
f 84/15/9 79/14/9 83/13/9
f 84/15/9 80/16/9 79/14/9
f 82/11/12 85/10/12 81/9/12
f 82/11/12 86/12/12 85/10/12
f 88/15/11 83/14/11 87/13/11
f 88/15/11 84/16/11 83/14/11
f 86/11/14 89/10/14 85/9/14
f 86/11/14 90/12/14 89/10/14
f 92/15/13 87/14/13 91/13/13
f 92/15/13 88/16/13 87/14/13
f 90/11/16 93/10/16 89/9/16
f 90/11/16 94/12/16 93/10/16
f 96/15/15 91/14/15 95/13/15
f 96/15/15 92/16/15 91/14/15
f 94/11/18 97/10/18 93/9/18
f 94/11/18 98/12/18 97/10/18
f 100/15/17 95/14/17 99/13/17
f 100/15/17 96/16/17 95/14/17
f 98/11/20 101/10/20 97/9/20
f 98/11/20 102/12/20 101/10/20
f 104/15/19 99/14/19 103/13/19
f 104/15/19 100/16/19 99/14/19
f 102/11/22 105/10/22 101/9/22
f 102/11/22 106/12/22 105/10/22
f 108/15/21 103/14/21 107/13/21
f 108/15/21 104/16/21 103/14/21
f 106/3/24 109/2/24 105/1/24
f 106/3/24 110/4/24 109/2/24
f 112/7/23 107/6/23 111/5/23
f 112/7/23 108/8/23 107/6/23
f 110/3/32 113/2/32 109/1/32
f 110/3/32 114/4/32 113/2/32
f 116/7/33 111/6/33 115/5/33
f 116/7/33 112/8/33 111/6/33
f 114/3/28 117/2/28 113/1/28
f 114/3/28 118/4/28 117/2/28
f 120/7/27 115/6/27 119/5/27
f 120/7/27 116/8/27 115/6/27
f 118/3/30 1/2/30 117/1/30
f 118/3/30 3/4/30 1/2/30
f 8/7/29 119/6/29 6/5/29
f 8/7/29 120/8/29 119/6/29
f 8/27/34 4/26/34 3/25/34
f 8/27/34 7/28/34 4/26/34
f 5/31/35 1/30/35 2/29/35
f 5/31/35 6/32/35 1/30/35
f 7/28/34 10/33/34 4/26/34
f 7/28/34 12/34/34 10/33/34
f 11/36/35 2/29/35 9/35/35
f 11/36/35 5/31/35 2/29/35
f 12/34/34 14/37/34 10/33/34
f 12/34/34 16/38/34 14/37/34
f 15/40/35 9/35/35 13/39/35
f 15/40/35 11/36/35 9/35/35
f 16/38/34 18/41/34 14/37/34
f 16/38/34 20/42/34 18/41/34
f 19/44/35 13/39/35 17/43/35
f 19/44/35 15/40/35 13/39/35
f 20/42/34 22/45/34 18/41/34
f 20/42/34 24/46/34 22/45/34
f 23/48/35 17/43/35 21/47/35
f 23/48/35 19/44/35 17/43/35
f 24/46/34 26/49/34 22/45/34
f 24/46/34 28/50/34 26/49/34
f 27/52/35 21/47/35 25/51/35
f 27/52/35 23/48/35 21/47/35
f 28/50/34 30/53/34 26/49/34
f 28/50/34 32/54/34 30/53/34
f 31/56/35 25/51/35 29/55/35
f 31/56/35 27/52/35 25/51/35
f 32/54/34 34/55/34 30/53/34
f 32/54/34 36/56/34 34/55/34
f 35/54/35 29/55/35 33/53/35
f 35/54/35 31/56/35 29/55/35
f 36/56/34 38/51/34 34/55/34
f 36/56/34 40/52/34 38/51/34
f 39/50/35 33/53/35 37/49/35
f 39/50/35 35/54/35 33/53/35
f 40/52/34 42/57/34 38/51/34
f 40/52/34 44/58/34 42/57/34
f 43/60/35 37/49/35 41/59/35
f 43/60/35 39/50/35 37/49/35
f 44/58/34 46/43/34 42/57/34
f 44/58/34 48/44/34 46/43/34
f 47/42/35 41/59/35 45/41/35
f 47/42/35 43/60/35 41/59/35
f 48/44/34 50/39/34 46/43/34
f 48/44/34 52/40/34 50/39/34
f 51/38/35 45/41/35 49/37/35
f 51/38/35 47/42/35 45/41/35
f 52/40/34 54/35/34 50/39/34
f 52/40/34 56/36/34 54/35/34
f 55/34/35 49/37/35 53/33/35
f 55/34/35 51/38/35 49/37/35
f 56/36/34 58/29/34 54/35/34
f 56/36/34 60/31/34 58/29/34
f 59/28/35 53/33/35 57/26/35
f 59/28/35 55/34/35 53/33/35
f 60/31/34 62/30/34 58/29/34
f 60/31/34 64/61/34 62/30/34
f 63/62/35 57/26/35 61/25/35
f 63/62/35 59/28/35 57/26/35
f 64/61/34 66/63/34 62/30/34
f 64/61/34 68/64/34 66/63/34
f 67/66/35 61/25/35 65/65/35
f 67/66/35 63/62/35 61/25/35
f 68/64/34 70/67/34 66/63/34
f 68/64/34 72/68/34 70/67/34
f 71/70/35 65/65/35 69/69/35
f 71/70/35 67/66/35 65/65/35
f 72/68/34 74/71/34 70/67/34
f 72/68/34 76/72/34 74/71/34
f 75/74/35 69/69/35 73/73/35
f 75/74/35 71/70/35 69/69/35
f 76/72/34 78/75/34 74/71/34
f 76/72/34 80/76/34 78/75/34
f 79/78/35 73/73/35 77/77/35
f 79/78/35 75/74/35 73/73/35
f 80/76/34 82/79/34 78/75/34
f 80/76/34 84/80/34 82/79/34
f 83/82/35 77/77/35 81/81/35
f 83/82/35 79/78/35 77/77/35
f 84/80/34 86/83/34 82/79/34
f 84/80/34 88/84/34 86/83/34
f 87/86/35 81/81/35 85/85/35
f 87/86/35 83/82/35 81/81/35
f 88/84/34 90/87/34 86/83/34
f 88/84/34 92/88/34 90/87/34
f 91/90/35 85/85/35 89/89/35
f 91/90/35 87/86/35 85/85/35
f 92/88/34 94/89/34 90/87/34
f 92/88/34 96/90/34 94/89/34
f 95/88/35 89/89/35 93/87/35
f 95/88/35 91/90/35 89/89/35
f 96/90/34 98/85/34 94/89/34
f 96/90/34 100/86/34 98/85/34
f 99/84/35 93/87/35 97/83/35
f 99/84/35 95/88/35 93/87/35
f 100/86/34 102/91/34 98/85/34
f 100/86/34 104/82/34 102/91/34
f 103/80/35 97/83/35 101/92/35
f 103/80/35 99/84/35 97/83/35
f 104/82/34 106/77/34 102/91/34
f 104/82/34 108/78/34 106/77/34
f 107/76/35 101/92/35 105/75/35
f 107/76/35 103/80/35 101/92/35
f 108/78/34 110/73/34 106/77/34
f 108/78/34 112/74/34 110/73/34
f 111/72/35 105/75/35 109/71/35
f 111/72/35 107/76/35 105/75/35
f 112/74/34 114/69/34 110/73/34
f 112/74/34 116/70/34 114/69/34
f 115/68/35 109/71/35 113/67/35
f 115/68/35 111/72/35 109/71/35
f 116/70/34 118/65/34 114/69/34
f 116/70/34 120/66/34 118/65/34
f 119/64/35 113/67/35 117/63/35
f 119/64/35 115/68/35 113/67/35
f 120/66/34 3/25/34 118/65/34
f 120/66/34 8/27/34 3/25/34
f 6/32/35 117/63/35 1/30/35
f 6/32/35 119/64/35 117/63/35

